<svg width="562" height="385" viewBox="0 0 562 385" fill="none" xmlns="http://www.w3.org/2000/svg">
<path fill-rule="evenodd" clip-rule="evenodd" d="M0 29.9824C0 46.5834 0.844117 59.3078 1.90523 58.7082C2.95332 58.1185 12.141 50.4581 22.3224 41.6837C41.7111 24.9797 48.9132 14.0384 46.4373 5.04621C45.1223 0.27111 44.6904 0.182059 22.5503 0.182059H0V29.9824ZM381.371 1.61281C385.492 2.07983 388.424 3.54422 388.424 5.13724C388.424 6.63725 389.4 8.4143 390.594 9.08713C391.824 9.78173 392.764 8.11747 392.764 5.24608C392.764 0.558051 392.078 0.205806 383.541 0.498684C375.547 0.773752 375.259 0.92217 381.371 1.61281ZM398.265 1.76123C397.627 2.345 397.104 4.82457 397.104 7.27248C397.104 9.72236 395.893 12.0931 394.411 12.5443C392.414 13.1518 392.595 14.163 395.103 16.4506C397.488 18.6255 399.569 18.9876 402.136 17.6776C404.531 16.4546 405.784 16.5298 405.784 17.8933C405.784 19.0371 407.368 19.9711 409.303 19.9711C411.727 19.9711 412.209 19.1993 410.85 17.4975C409.763 16.138 408.624 12.7679 408.32 10.0093C407.88 6.02775 408.789 4.92945 412.743 4.67615C417.2 4.39119 417.31 4.56929 413.802 6.38791C410.579 8.05612 410.369 8.95059 412.612 11.4183C415.03 14.072 415.498 14.0146 416.69 10.9176C417.508 8.79426 419.454 13.8622 421.644 23.824C423.629 32.8459 424.721 41.0128 424.07 41.9726C423.419 42.9323 423.933 43.718 425.211 43.718C426.715 43.718 427.045 46.6824 426.147 52.1283C423.951 65.4285 421.566 64.918 422.308 51.3051C422.738 43.4033 422.067 38.3987 420.459 37.4904C419.07 36.7087 418.033 32.8894 418.155 29.0048C418.276 25.1202 417.495 21.4454 416.419 20.8399C415.342 20.2343 414.463 20.6815 414.463 21.8333C414.463 22.985 413.585 23.7073 412.51 23.4342C411.436 23.1631 410.675 23.83 410.818 24.9184C410.963 26.0068 412.573 26.638 414.398 26.3194C416.764 25.9078 416.959 26.2146 415.08 27.3841C413.04 28.6545 413.172 30.3129 415.663 34.6942C417.436 37.8109 418.315 42.2279 417.619 44.5135C416.605 47.8301 416.807 48.0676 418.628 45.6969C421.494 41.9647 421.657 45.6296 418.803 49.6547C417.276 51.8117 416.69 51.9146 416.666 50.0327C416.649 48.6078 415.657 47.9924 414.463 48.6652C413.27 49.3381 412.309 51.8394 412.326 54.224C412.348 57.0993 412.936 57.7326 414.068 56.1059C415.208 54.4713 416.725 56.0426 418.617 60.8137C420.793 66.3012 421.948 67.3382 423.56 65.2465C424.986 63.3962 425.25 65.2267 424.378 70.9279C423.671 75.5526 423.974 79.3383 425.053 79.3383C428.015 79.3383 430.018 69.8336 427.876 65.9391C426.841 64.0572 426.719 60.2913 427.607 57.5703C428.965 53.4027 429.28 53.2464 429.603 56.5809C430.037 61.073 430.682 64.0413 432.999 72.2122C434.162 76.3165 433.919 77.5513 432.14 76.548C430.686 75.7287 429.653 76.4016 429.653 78.1707C429.653 79.835 427.626 84.7427 425.148 89.0784C421.605 95.2783 421.162 97.7203 423.083 100.518C425.257 103.689 425.38 103.606 424.226 99.7368C423.215 96.3489 423.818 95.4624 426.993 95.6801C430.037 95.8898 430.873 97.2256 430.324 101.005C429.675 105.49 429.822 105.61 431.641 102.096C432.767 99.9189 433.757 94.2038 433.841 89.397C434.054 77.1912 436.402 80.6285 437.32 94.4868C437.736 100.805 439.112 106.291 440.377 106.675C441.64 107.059 442.673 109.467 442.673 112.026C442.673 114.587 443.645 119.009 444.832 121.857C446.019 124.705 447.44 130.774 447.992 135.343C448.543 139.915 450.485 148.996 452.31 155.526C456.229 169.559 456.428 172.347 453.523 172.347C452.329 172.347 451.353 168.415 451.353 163.606C451.353 158.799 450.355 154.562 449.137 154.192C447.918 153.822 446.065 146.568 445.021 138.07C443.975 129.575 442.417 122.011 441.558 121.265C440.698 120.517 440.668 122.765 441.488 126.262C442.367 130.004 441.968 134.073 440.518 136.157C438.593 138.921 438.303 136.788 439.19 126.405C439.837 118.845 439.429 112.608 438.244 111.941C437.1 111.296 436.124 108.816 436.076 106.431C435.998 102.584 435.595 102.763 432.485 108.001C429.219 113.508 428.855 113.643 427.103 109.98C425.543 106.72 425.411 106.895 426.324 111.001C426.93 113.722 427.453 117.284 427.488 118.916C427.524 120.664 428.206 121.069 429.143 119.906C432.346 115.93 436.493 116.787 436.085 121.341C435.864 123.816 435.79 130.044 435.922 135.181C436.113 142.616 436.827 144.286 439.418 143.38C441.208 142.752 442.673 143.152 442.673 144.266C442.673 145.38 441.69 146.589 440.488 146.955C439.079 147.383 439.249 149.904 440.965 154.046C443.689 160.626 447.861 163.264 445.654 157.01C444.708 154.329 444.915 154.163 446.566 156.276C447.74 157.776 448.384 162.088 448 165.858C447.111 174.581 448.975 179.786 451.622 175.976C452.796 174.284 453.469 176.233 453.49 181.394C453.508 185.825 455.087 193.64 456.999 198.757L460.475 208.06L451.253 220.97C446.18 228.071 440.449 234.949 438.517 236.26C433.6 239.59 426.856 249.611 428.512 251.123C429.269 251.814 430.888 251.068 432.107 249.467C434.043 246.924 434.204 246.932 433.377 249.524C432.845 251.19 430.393 252.285 427.787 252.021C425.233 251.762 423.143 252.267 423.143 253.142C423.143 254.018 416.184 262.69 407.68 272.414C387.43 295.563 385.529 298.312 387.634 301.383C390.516 305.592 390.359 308.585 387.133 311.026C384.757 312.823 384.084 312.713 384.084 310.518C384.084 308.97 385.145 306.736 386.443 305.553C388.142 304.003 388.074 302.99 386.2 301.935C383.173 300.228 379.332 304.785 380.775 308.373C381.315 309.72 381.061 310.611 380.208 310.352C379.356 310.092 378.414 310.55 378.116 311.365C376.927 314.62 377.713 316.548 380.48 317.157C382.305 317.559 380.896 319.601 376.682 322.657C372.047 326.019 371.116 326.31 373.666 323.6C378.537 318.43 375.478 312.645 370.046 316.757C368.111 318.222 367.047 320.66 367.685 322.174C368.415 323.905 367.911 324.402 366.331 323.511C364.667 322.573 364.272 323.175 365.16 325.286C366.008 327.303 365.544 328.15 363.901 327.59C360.377 326.385 351.096 339.188 352.711 343.025C353.42 344.711 352.969 346.673 351.708 347.383C350.313 348.169 349.92 347.472 350.705 345.604C352.587 341.136 349.603 341.846 344.903 346.985C339.745 352.623 339.493 355.744 344.482 352.174C347.919 349.716 347.997 349.785 345.322 352.9C343.694 354.792 341.605 355.914 340.678 355.392C339.754 354.871 333.558 361.115 326.914 369.266L314.834 384.09H328.936C336.692 384.09 344.217 383.183 345.658 382.077C351.422 377.65 377.465 360.511 393.849 350.361C403.397 344.446 411.697 339.109 412.293 338.502C412.89 337.892 416.796 335.236 420.973 332.597C425.15 329.957 429.545 327.054 430.738 326.141C431.932 325.231 441.208 319.249 451.353 312.849C461.497 306.449 470.774 300.491 471.97 299.61C473.163 298.728 477.924 295.429 482.546 292.276L490.953 286.545L489.523 265.561C488.737 254.02 487.205 219.643 486.118 189.168C485.031 158.692 483.622 123.517 482.989 111.001C482.355 98.4842 481.298 73.6905 480.645 55.9021C479.99 38.1157 478.846 18.2594 478.104 11.7804L476.752 0L438.09 0.352245C416.824 0.544199 398.903 1.17943 398.265 1.76123ZM542.491 2.47957C542.491 3.26915 544.566 5.24014 547.103 6.86086C550.831 9.24149 551.837 12.2039 552.356 22.3102C554.32 60.6277 554.515 71.9055 553.139 67.4648C552.295 64.7438 551.41 59.4008 551.173 55.5914L550.742 48.6652L547.632 57.5703C545.356 64.0829 545.067 68.6027 546.558 74.391C548.606 82.3462 547.582 95.1695 544.9 95.1695C544.108 95.1695 543.683 91.3858 543.952 86.7592L544.442 78.3488L542.704 85.8746C540.632 94.8588 542.073 103.542 545.466 102.511C548.702 101.528 551.247 88.2196 550.086 78.3488C549.346 72.0737 549.544 71.4583 551.032 75.3805C553.979 83.1477 553.604 93.6735 550.167 99.6834C548.435 102.709 547.569 106.495 548.242 108.094C548.982 109.849 548.185 111.001 546.232 111.001C544.453 111.001 542.307 108.996 541.465 106.548C540.441 103.57 538.598 110.611 535.899 127.821C533.681 141.971 529.689 165.124 527.028 179.273C524.366 193.422 522.118 210.035 522.033 216.189C521.946 222.342 521.312 227.06 520.622 226.672C519.935 226.284 518.203 232.824 516.775 241.209C515.347 249.591 512.828 264.465 511.174 274.26C502.032 328.415 498.595 348.18 497.241 354.406C495.664 361.647 490.319 364.92 461.66 376.188C455.99 378.418 451.353 381.107 451.353 382.166C451.353 383.357 471.011 384.09 503.031 384.09H554.708L558.362 377.098C561.711 370.696 562.017 354.513 561.999 185.188L561.978 0.269131L552.235 0.656996C546.875 0.868739 542.491 1.68999 542.491 2.47957ZM404.499 6.41363C403.807 7.43475 404.421 9.56801 405.862 11.1531C407.708 13.1815 407.765 14.0344 406.048 14.0344C404.709 14.0344 403.598 12.9223 403.581 11.5608C403.555 9.64321 403.147 9.66102 401.771 11.6379C400.621 13.2943 399.996 12.1445 399.996 8.36483C399.996 4.33578 400.886 2.84962 402.878 3.5462C404.462 4.10029 405.191 5.39054 404.499 6.41363ZM131.283 18.3623C126.509 25.0035 122.247 31.2786 121.813 32.3116C121.167 33.8452 110.634 48.7107 99.7077 63.507C92.5208 73.2393 65.3246 111.678 60.759 118.554C57.7753 123.048 54.6028 126.749 53.7066 126.779C52.8105 126.808 52.0792 127.685 52.0792 128.728C52.0792 129.771 44.8836 140.732 36.0865 153.086L20.0961 175.549L24.3709 183.15C26.7231 187.331 30.564 192.621 32.9097 194.906C35.2533 197.192 40.2702 204.195 44.059 210.47C48.3599 217.594 52.0162 221.505 53.7956 220.883C55.3623 220.335 56.1196 220.662 55.4773 221.61C53.9605 223.848 62.7272 234.041 65.0447 232.733C66.019 232.185 67.4056 233.141 68.1261 234.856C70.1789 239.734 69.708 240.318 65.9886 237.504C63.593 235.69 63.9185 236.976 67.0563 241.713C69.5387 245.465 72.2208 249.87 73.0128 251.503C73.8049 253.136 79.0627 260.26 84.6981 267.334C90.3313 274.409 95.5892 282.121 96.379 284.472C97.1689 286.823 99.2434 289.825 100.988 291.144C102.731 292.464 104.158 294.74 104.158 296.201C104.158 297.661 106.174 300.893 108.637 303.38C113.834 308.626 129.313 330.37 135.623 341.29L139.963 348.798L157.322 347.745C166.87 347.165 185.912 345.738 199.637 344.577C229.888 342.014 269.471 338.893 288.605 337.564C296.363 337.025 313.608 335.561 326.929 334.31L351.146 332.037L365.44 304.437C373.301 289.257 379.097 275.897 378.318 274.747C377.535 273.594 377.928 273.237 379.197 273.952C381.901 275.475 386.864 263.899 384.809 260.865C384.04 259.733 384.379 259.351 385.562 260.018C386.742 260.683 389.335 258.118 391.321 254.319C395.58 246.176 395.782 244.856 392.482 246.714C390.989 247.557 390.44 247.023 391.08 245.347C391.657 243.835 393.736 242.859 395.702 243.18C397.666 243.498 399.274 242.596 399.274 241.171C399.274 239.746 401.205 235.296 403.566 231.279C407.793 224.083 405.994 218.428 401.643 225.241C399.53 228.554 399.402 228.556 399.339 225.283C399.276 221.97 401.507 220.972 407.411 221.671C408.904 221.849 410.273 220.84 410.453 219.433C410.636 218.024 410.926 215.536 411.098 213.904C411.269 212.271 412.706 211.195 414.288 211.511C416.091 211.871 416.685 210.947 415.883 209.038C415.177 207.36 415.308 205.988 416.171 205.988C417.497 205.988 423.779 195.249 424.276 192.136C424.363 191.592 426.583 188.03 429.206 184.22C435.286 175.392 435.208 172.553 428.633 163.719C425.686 159.757 423.92 156.516 424.708 156.516C425.498 156.516 424.248 155.115 421.93 153.401C419.615 151.687 418.927 150.842 420.407 151.525C422.173 152.338 422.653 151.715 421.807 149.704C421.097 148.02 419.754 147.076 418.816 147.603C416.742 148.772 405.797 136.042 405.751 132.407C405.731 130.974 404.664 128.465 403.375 126.832C401.418 124.35 401.242 124.447 402.299 127.43C403.099 129.686 402.707 130.513 401.229 129.68C399.946 128.955 399.397 126.614 400.011 124.473C400.812 121.681 400.252 120.889 398.03 121.667C396.316 122.267 394.934 121.59 394.934 120.151C394.934 118.72 393.046 115.994 390.739 114.09C388.328 112.099 387.102 109.309 387.853 107.522C388.623 105.695 388.257 104.924 386.968 105.652C384.77 106.891 375.404 96.996 375.404 93.436C375.404 92.3931 374.671 91.2453 373.777 90.8812C372.883 90.5191 369.821 87.2004 366.974 83.5078C364.127 79.8152 362.836 77.3792 364.105 78.0955C365.372 78.8099 367.041 77.5889 367.809 75.3805C368.577 73.172 370.101 71.8699 371.196 72.4853C372.29 73.1027 372.559 72.1212 371.795 70.3046C370.539 67.3224 370.172 67.3659 368.022 70.7617C364.598 76.1681 361.154 75.333 354.878 67.5757C348.709 59.949 348.536 59.5492 351.389 59.5492C352.502 59.5492 354.036 61.3441 354.8 63.5367C355.562 65.7293 357.1 67.0077 358.218 66.3784C359.348 65.7412 358.797 63.9127 356.977 62.2504C353.229 58.8329 352.691 55.5914 355.874 55.5914C357.068 55.5914 358.044 56.852 358.044 58.3955C358.044 59.9371 359.266 61.5736 360.757 62.0308C362.903 62.6897 362.881 63.513 360.65 65.9767C356.794 70.2412 361.076 72.3349 365.463 68.3316C369.313 64.821 370.031 62.6323 366.724 64.4965C365.531 65.1693 364.554 64.4549 364.554 62.9114C364.554 61.3658 362.195 56.9331 359.314 53.0604C356.432 49.1877 354.724 45.3585 355.516 44.5511C356.311 43.7437 355.699 43.7457 354.158 44.557C352.478 45.4416 351.921 47.6461 352.763 50.0683C353.7 52.7616 353.368 53.656 351.767 52.7537C350.356 51.9581 349.332 52.8763 349.286 54.9799C349.223 57.8394 348.158 57.3883 343.992 52.7378C339.111 47.2958 338.484 42.2457 343.004 44.7925C344.115 45.4178 345.025 45.0399 345.025 43.9515C345.025 42.8631 344.091 41.4462 342.95 40.803C341.809 40.1599 341.422 38.3314 342.091 36.7404C342.761 35.1473 344.115 34.3004 345.103 34.8564C346.088 35.4125 347.459 35.0345 348.149 34.0154C349.935 31.3795 343.33 25.9078 338.361 25.9078C336.058 25.9078 334.42 24.7937 334.717 23.4342C335.136 21.5265 328.676 21.1209 306.508 21.6631C290.695 22.049 277.756 21.58 277.756 20.6202C277.756 19.6624 281.905 19.2251 286.978 19.6486C292.051 20.074 295.449 19.7079 294.529 18.8372C293.612 17.9665 280.917 16.5535 266.32 15.6947C251.725 14.8378 230.016 13.2527 218.082 12.1742C131.689 4.35755 141.875 3.63129 131.283 18.3623ZM256.598 19.3893C253.914 19.8603 249.518 19.8603 246.834 19.3893C244.149 18.9164 246.345 18.5305 251.716 18.5305C257.087 18.5305 259.283 18.9164 256.598 19.3893ZM404.699 25.9078C406.55 29.173 409.045 31.8445 410.245 31.8445C411.443 31.8445 410.258 29.173 407.611 25.9078C404.963 22.6426 402.468 19.9711 402.064 19.9711C401.663 19.9711 402.848 22.6426 404.699 25.9078ZM267.448 23.2601C265.957 23.8102 263.516 23.8102 262.023 23.2601C260.533 22.7119 261.752 22.2627 264.736 22.2627C267.719 22.2627 268.941 22.7119 267.448 23.2601ZM301.037 25.1242C300.317 25.7812 298.444 25.8524 296.879 25.2805C295.148 24.6492 295.662 24.1802 298.19 24.0853C300.477 24.0002 301.758 24.4672 301.037 25.1242ZM281.505 27.3524C277.003 27.7799 270.167 27.7739 266.316 27.3366C262.462 26.8993 266.146 26.549 274.501 26.5569C282.855 26.5668 286.006 26.923 281.505 27.3524ZM554.823 30.2377C554.131 31.8149 553.617 31.3459 553.513 29.0404C553.419 26.9547 553.931 25.7871 554.652 26.4441C555.372 27.1011 555.45 28.8089 554.823 30.2377ZM337.523 29.7291C336.835 30.7423 337.267 32.1295 338.48 32.8142C339.693 33.4969 340.685 33.113 340.685 31.9613C340.685 30.8096 341.717 29.8656 342.978 29.8656C344.298 29.8656 343.907 31.6407 342.056 34.051C340.287 36.3525 339.361 39.4693 339.995 40.9772C340.63 42.4851 340.125 43.718 338.875 43.718C335.55 43.718 333.738 40.2391 336.31 38.7905C337.523 38.1078 338.515 36.5998 338.515 35.4442C338.515 34.1302 337.271 34.2786 335.21 35.8399C332.469 37.9138 332.124 37.8208 333.187 35.2938C333.893 33.6157 333.276 31.5715 331.818 30.7502C330.008 29.7311 329.724 30.0794 330.92 31.8445C332.081 33.5583 331.827 33.958 330.171 33.022C325.84 30.582 327.439 27.8867 333.218 27.8867C336.271 27.8867 338.209 28.7159 337.523 29.7291ZM398.653 31.2528C398.1 32.1236 398.304 34.4785 399.104 36.489C400.365 39.6493 400.921 39.7522 403.199 37.247C405.291 34.9494 405.198 33.865 402.748 32.0108C401.051 30.7245 399.206 30.3841 398.653 31.2528ZM349.364 37.898C349.364 39.0497 348.284 39.3842 346.962 38.6401C345.361 37.7377 345.029 38.6322 345.966 41.3255C346.739 43.5458 346.398 45.9126 345.207 46.5834C344.018 47.2543 343.592 49.1046 344.261 50.6956C346.181 55.2589 349.364 51.9957 349.364 45.4634C349.364 42.0557 350.278 40.0412 351.511 40.7358C352.739 41.4284 353.103 40.6348 352.363 38.8736C350.873 35.3353 349.364 34.8446 349.364 37.898ZM407.849 41.84C406.118 42.8393 405.551 43.6705 406.591 43.6883C407.632 43.7041 407.407 44.9033 406.087 46.3539C404.204 48.4218 404.729 48.9185 408.533 48.6633C411.198 48.4852 413.676 46.9377 414.04 45.2239C414.9 41.1909 411.857 39.5286 407.849 41.84ZM316.581 50.1455C323.991 57.2497 324.774 58.7458 321.626 59.7926C319.577 60.4753 317.166 60.6455 316.272 60.1745C315.378 59.7016 314.645 60.2042 314.645 61.2906C314.645 62.3771 317.82 63.0974 321.697 62.8916C327.157 62.6027 328.617 63.2517 328.166 65.7669C327.845 67.5539 328.821 68.8896 330.336 68.7353C334.431 68.3177 353.978 88.186 351.623 90.3726C350.443 91.4709 350.899 93.7368 352.765 96.0422C354.475 98.1557 355.874 99.0007 355.874 97.9222C355.874 96.8437 354.703 94.8925 353.27 93.5864C351.777 92.2249 351.606 91.2117 352.865 91.2117C354.075 91.2117 359.396 95.8621 364.691 101.546C369.986 107.229 376.064 113.494 378.195 115.469C380.328 117.444 381.476 119.941 380.746 121.016C380.017 122.093 380.714 122.728 382.296 122.429C383.876 122.13 384.924 122.999 384.626 124.358C384.327 125.72 384.885 126.61 385.863 126.337C388.669 125.558 410.123 148.83 410.123 152.655C410.123 154.545 408.659 156.605 406.869 157.232C405.078 157.857 403.629 159.512 403.646 160.907C403.67 162.68 404.312 162.549 405.784 160.473C406.94 158.841 407.88 158.396 407.869 159.484C407.832 163.313 397.974 192.27 397.002 191.4C396.461 190.915 395.834 193.691 395.606 197.568C395.381 201.445 394.404 205.149 393.436 205.798C392.471 206.447 391.401 210.094 391.062 213.904C390.722 217.713 389.557 221.111 388.472 221.453C387.387 221.796 387.035 223.353 387.693 224.916C388.35 226.478 387.701 227.756 386.252 227.756C384.522 227.756 384.082 229.458 384.976 232.703C385.796 235.69 385.41 237.651 383.997 237.651C382.71 237.651 382.122 238.337 382.691 239.174C384.355 241.632 375.803 271.822 372.995 273.406C371.585 274.201 371.06 276.34 371.826 278.163C375.026 285.772 365.908 291.253 345.025 294.275C341.097 294.843 340.498 294.572 342.855 293.294C344.645 292.322 350.035 290.937 354.833 290.216C366.648 288.443 369.369 286.575 368.525 280.807C367.831 276.053 367.592 275.99 360.496 278.65C353.594 281.238 353.411 281.549 357.241 284.195C361.994 287.478 359.631 288.038 353.548 285.069C350.569 283.615 346.741 283.724 340.45 285.441C332.608 287.584 331.998 288.16 335.257 290.335C338.502 292.498 337.801 293.082 329.511 295.11C324.319 296.379 319.093 297.839 317.9 298.354C316.706 298.87 317.627 297.889 319.942 296.175C322.259 294.461 325.432 293.06 326.994 293.06C328.557 293.06 329.835 292.219 329.835 291.192C329.835 289.577 323.9 291.433 304.88 299.001C302.493 299.951 298.275 301.308 295.508 302.017C290.732 303.241 290.676 303.447 294.423 306.065C297.995 308.559 297.721 308.711 291.57 307.664C284.398 306.445 269.076 311.636 269.076 315.285C269.076 316.375 267.123 316.803 264.736 316.233C262.349 315.665 260.396 315.978 260.396 316.93C260.396 317.881 258.931 318.149 257.141 317.523C255.349 316.896 253.886 317.464 253.886 318.786C253.886 320.108 252.484 320.697 250.772 320.098C249.058 319.498 247.341 319.868 246.959 320.917C246.575 321.968 242.646 322.951 238.225 323.104C233.807 323.254 230.698 324.127 231.316 325.041C231.937 325.953 231.466 326.701 230.272 326.701C229.079 326.701 227.562 325.904 226.902 324.93C225.366 322.664 231.772 320.359 235.094 321.98C239.069 323.919 225.574 312.505 214.909 304.906C209.584 301.112 206.082 299.272 207.128 300.817C208.62 303.026 208.139 303.287 204.875 302.036C202.59 301.164 199.034 300.509 196.968 300.586C193.949 300.697 193.737 300.206 195.883 298.081C197.742 296.236 199.374 296.048 201.264 297.459C202.755 298.571 203.977 298.696 203.977 297.736C203.977 296.776 202.024 294.879 199.637 293.519C197.063 292.055 195.297 291.861 195.297 293.044C195.297 294.141 193.719 295.039 191.788 295.039C189.395 295.039 188.629 296.248 189.373 298.848C190.184 301.68 189.601 302.357 187.101 301.48C184.979 300.738 184.282 301.11 185.215 302.488C186.092 303.782 189.779 304.217 194.251 303.554C199.146 302.83 201.807 303.224 201.807 304.674C201.807 305.905 200.307 306.912 198.476 306.912C195.818 306.912 195.614 307.712 197.467 310.87C200.904 316.728 196.996 315.673 189.77 308.794C185.124 304.371 183.609 301.201 184.102 296.921C184.677 291.92 184.033 291.081 179.619 291.081C176.785 291.081 173.096 289.969 171.423 288.607C168.83 286.498 168.812 286.652 171.299 289.644C176.236 295.587 172.829 294.873 167.465 288.841L162.418 283.165H169.22C173.202 283.165 175.468 283.987 174.682 285.144C173.944 286.233 174.865 287.123 176.724 287.123C178.584 287.123 180.107 286.183 180.107 285.034C180.107 283.886 182.518 285.443 185.463 288.497C189.837 293.032 190.833 293.396 190.888 290.491C190.95 287.22 181.032 277.437 177.505 277.292C176.67 277.256 171.38 273.261 165.751 268.411C160.122 263.561 154.692 260.056 153.69 260.622C151.661 261.764 146.288 257.535 145.939 254.521C145.815 253.46 144.741 252.297 143.554 251.934C140.106 250.888 142.12 257.75 146.026 260.355C148.729 262.157 148.972 263.274 147.048 265.029C145.123 266.784 145.142 267.334 147.124 267.334C148.556 267.334 149.728 266.305 149.728 265.049C149.728 263.752 151.607 264.314 154.068 266.345C156.455 268.314 158.407 271.124 158.407 272.588C158.407 275.941 152.7 276.075 150.348 272.776C149.378 271.417 138.32 261.245 125.773 250.173C113.227 239.101 103.282 229.165 103.674 228.091C104.067 227.018 103.208 225.476 101.767 224.663C99.9464 223.638 99.7077 224.036 100.984 225.965C102.548 228.334 102.277 228.342 99.1501 226.031C95.2485 223.143 93.9834 218.764 97.6484 220.83C98.8419 221.503 99.8184 220.664 99.8184 218.968C99.8184 214.767 103.603 215.052 104.833 219.346C105.378 221.251 105.84 220.137 105.86 216.872C105.896 210.641 102.579 198.916 102.205 203.956C102.056 205.951 100.893 205.442 98.5121 202.343C95.2962 198.156 95.3222 197.623 98.8636 195.263C101.077 193.786 102.142 191.396 101.385 189.597C99.6405 185.453 104.38 174.326 107.889 174.326C109.418 174.326 110.653 172.768 110.636 170.863C110.605 167.869 110.284 167.801 108.26 170.368C106.313 172.838 106.135 172.727 107.209 169.711C107.919 167.718 108.503 165.047 108.507 163.774C108.511 162.504 110.449 164.358 112.814 167.894C117.87 175.458 119.491 175.994 118.78 169.873C118.467 167.184 119.337 165.617 120.976 165.915C122.727 166.234 123.625 164.132 123.51 159.979L123.334 153.547L120.251 159.979C117.05 166.65 112.838 168.619 112.838 163.442C112.838 158.956 113.713 157.442 115.917 158.111C117.015 158.445 116.527 157.186 114.832 155.316C112.454 152.686 112.369 151.725 114.466 151.081C115.959 150.624 117.178 148.044 117.178 145.351C117.178 142.655 118.063 140.95 119.146 141.559C120.227 142.17 120.602 140.886 119.977 138.707C119.209 136.032 119.91 134.748 122.134 134.748C124.417 134.748 125.292 132.994 124.992 129.025C124.71 125.33 125.461 123.618 127.11 124.196C128.514 124.687 130.289 122.809 131.057 120.025C132.461 114.917 138.804 112.839 138.965 117.432C139.179 123.539 144.965 108.632 147.412 95.6642C149.975 82.0909 150.433 81.3152 155.893 81.2697C162.724 81.2163 191.076 74.5414 197.224 71.5414C199.587 70.3877 204.027 69.4437 207.088 69.4437C210.15 69.4437 212.657 68.5354 212.657 67.4272C212.657 66.2636 210.361 65.9371 207.232 66.6515C203.89 67.4173 201.807 67.0512 201.807 65.6997C201.807 64.4945 203.028 63.4437 204.519 63.3685C206.012 63.2913 205.279 62.4641 202.892 61.5281C199.018 60.0103 198.973 59.8124 202.477 59.6877C204.877 59.6026 205.869 58.5894 205.029 57.0756C204.274 55.7161 205.012 56.1039 206.668 57.9423C208.95 60.4694 213.216 61.2808 224.233 61.2808C232.236 61.2808 238.288 60.5466 237.681 59.6501C236.136 57.3704 245.148 55.5024 251.108 56.8678C254.211 57.5762 256.056 57.1092 256.056 55.6112C256.056 53.8539 252.482 53.5907 242.494 54.6178C226.432 56.2682 229.029 56.1712 216.997 55.5835L207.232 55.1086L220.251 53.3315C227.412 52.3539 235.55 52.0531 238.336 52.6626C241.12 53.2721 242.897 53.0307 242.285 52.1263C241.671 51.222 244.653 50.8519 248.91 51.3051C253.708 51.8176 256.141 51.3803 255.309 50.1553C253.361 47.28 272.446 45.7721 281.601 48.0775C285.845 49.1461 292.26 49.4825 295.855 48.8275C299.451 48.1705 301.779 48.1943 301.028 48.8809C300.275 49.5656 301.143 51.4773 302.953 53.1277C305.592 55.534 306.755 55.6349 308.816 53.6343C310.808 51.7029 310.722 50.9172 308.432 50.1573C305.935 49.3282 305.935 48.875 308.432 47.2503C310.696 45.776 310.5 45.5841 307.593 46.437C303.17 47.7352 297.285 46.061 297.285 43.5062C297.285 42.5346 299.653 41.7391 302.547 41.7391C305.913 41.7391 310.967 44.7668 316.581 50.1455ZM296.2 45.6969C296.958 46.815 295.18 47.6758 292.116 47.6758C289.133 47.6758 286.088 46.7853 285.35 45.6969C284.593 44.5788 286.37 43.718 289.434 43.718C292.418 43.718 295.462 44.6085 296.2 45.6969ZM311.288 52.817C311.355 56.3691 312.673 58.354 315.188 58.6904C319.951 59.3276 319.916 57.7999 315.038 52.0155L311.184 47.4502L311.288 52.817ZM272.331 51.6336C269.594 52.7062 269.195 53.3335 271.246 53.3335C273.036 53.3335 276.454 52.5696 278.841 51.6336C281.577 50.561 281.976 49.9337 279.926 49.9337C278.135 49.9337 274.718 50.6976 272.331 51.6336ZM262.16 54.9641C263.725 55.536 265.597 55.4648 266.318 54.8078C267.038 54.1508 265.758 53.6837 263.471 53.7688C260.943 53.8638 260.428 54.3328 262.16 54.9641ZM190.957 60.7702C190.957 61.1858 189.004 61.5281 186.617 61.5281C184.23 61.5281 182.277 60.7207 182.277 59.7352C182.277 58.7478 184.23 58.4074 186.617 58.9753C189.004 59.5453 190.957 60.3526 190.957 60.7702ZM408.259 61.5281C408.259 63.1607 409.097 66.2775 410.123 68.4543C411.3 70.9497 411.987 71.3138 411.987 69.4437C411.987 67.8111 411.15 64.6944 410.123 62.5176C408.947 60.0222 408.259 59.6581 408.259 61.5281ZM414.55 62.8955C414.502 65.2801 415.44 67.7815 416.633 68.4543C417.827 69.1271 418.803 71.4583 418.803 73.6351C418.803 75.8119 417.827 77.0427 416.633 76.3699C415.44 75.6971 414.463 76.928 414.463 79.1048C414.463 83.1516 418.118 86.5593 420.311 84.5586C422.876 82.2215 421.607 70.1799 418.198 64.4965C415.041 59.2326 414.628 59.0525 414.55 62.8955ZM179.519 62.7234C178.799 63.3804 176.926 63.4516 175.361 62.8797C173.63 62.2484 174.144 61.7794 176.672 61.6845C178.959 61.5994 180.24 62.0664 179.519 62.7234ZM190.369 64.7023C189.648 65.3593 187.776 65.4305 186.211 64.8586C184.48 64.2273 184.994 63.7583 187.522 63.6634C189.809 63.5783 191.089 64.0453 190.369 64.7023ZM548.313 67.8369C547.621 69.4141 547.107 68.9451 547.003 66.6396C546.909 64.5539 547.422 63.3863 548.142 64.0433C548.862 64.7003 548.941 66.4081 548.313 67.8369ZM318.985 66.9167C318.985 69.4061 325.187 74.3415 326.645 73.0117C327.22 72.4873 325.734 70.4411 323.338 68.4662C320.944 66.4892 318.985 65.7927 318.985 66.9167ZM194.212 69.4437C191.825 70.3798 188.407 71.1436 186.617 71.1436C184.566 71.1436 184.966 70.5163 187.702 69.4437C190.089 68.5077 193.507 67.7439 195.297 67.7439C197.348 67.7439 196.948 68.3712 194.212 69.4437ZM271.788 75.5625C269.104 76.4807 266.906 78.2261 266.906 79.4392C266.906 80.6542 265.686 81.2618 264.193 80.7888C262.703 80.3178 256.336 82.9161 250.047 86.5613C243.757 90.2084 237.863 93.1906 236.945 93.1906C236.029 93.1906 235.133 94.9716 234.953 97.1484C234.773 99.3252 235.541 101.106 236.661 101.106C241.127 101.106 238.31 104.73 231.987 107.118C226.434 109.216 224.96 109.188 223.45 106.958C222.445 105.476 222.105 103.554 222.693 102.685C224.177 100.495 220.913 100.762 216.997 103.152C214.18 104.872 214.308 105.533 217.954 108.07C222.897 111.509 220.822 111.947 214.412 108.82C210.315 106.819 201.957 108.869 197.467 112.976C196.87 113.522 190.523 116.641 183.362 119.906C168.051 126.887 167.981 127.095 170.516 158.494C172.187 179.194 172.2 179.231 174.016 168.389C175.021 162.403 176.635 153.397 177.603 148.376C179.022 141.023 178.699 138.834 175.939 137.114C172.879 135.209 172.918 134.967 176.31 134.864C178.399 134.799 180.107 135.816 180.107 137.122C180.107 138.959 180.702 138.955 182.731 137.104C184.783 135.232 184.33 134.057 180.652 131.706C176.138 128.823 176.015 122.874 180.467 122.874C181.604 122.874 181.93 123.765 181.192 124.853C180.417 125.997 182.422 126.806 185.947 126.769C191.775 126.709 191.858 126.579 187.83 123.8C185.513 122.203 184.536 120.83 185.66 120.749C186.782 120.668 190.03 120.209 192.875 119.73C197.224 118.999 197.627 119.324 195.401 121.77C192.643 124.8 193.967 128.811 197.723 128.811C198.916 128.811 199.29 127.92 198.552 126.832C197.814 125.744 198.326 124.853 199.689 124.853C201.054 124.853 201.744 125.967 201.225 127.327C200.626 128.896 196.79 129.642 190.736 129.367C181.761 128.961 181.45 129.116 185.532 131.963C189.599 134.801 189.638 135.151 186.135 137.522C183.675 139.188 181.945 144.046 181.077 151.746C180.111 160.293 180.378 162.642 182.069 160.473C184.024 157.964 184.399 158.117 184.499 161.463C184.564 163.64 186.4 177.888 188.579 193.125C190.987 209.99 191.825 222.571 190.716 225.283C189.622 227.954 189.724 229.735 190.97 229.735C193.869 229.735 195.978 238.513 194.262 243.443C193.075 246.855 192.103 247.185 188.472 245.412C186.072 244.24 182.475 243.845 180.48 244.531C177.258 245.642 177.28 245.386 180.684 242.25C183.879 239.305 185.235 239.125 188.822 241.169C192.259 243.126 193.097 243.118 192.975 241.13C192.658 235.977 189.729 232.707 185.532 232.826C183.145 232.893 179.949 232.1 178.428 231.061C176.906 230.022 175.036 229.743 174.268 230.442C173.502 231.142 174.164 231.714 175.741 231.714C177.84 231.714 177.633 232.699 174.966 235.385C169.737 240.657 172.662 245.173 183.043 247.852C187.993 249.128 193.018 251.226 194.212 252.512C197.33 255.874 209.714 261.443 211.153 260.131C211.821 259.52 214.571 260.891 217.261 263.177C221.842 267.069 233.727 269.23 231.362 265.741C229.953 263.663 244.766 264.467 251.566 266.838C256.813 268.666 256.802 268.688 249.533 270.999C243.989 272.762 241.669 272.768 239.918 271.027C238.23 269.347 238.538 269.024 241.064 269.828C242.962 270.431 245.892 270.13 247.574 269.161C249.956 267.783 249.674 267.394 246.291 267.392C240.363 267.388 232.182 269.499 232.204 271.029C232.212 271.718 234.779 273.364 237.906 274.69C242.546 276.653 244.434 276.562 248.138 274.195C254.63 270.047 258.139 270.679 252.111 274.91L247.081 278.44L255.301 282.287C259.821 284.402 267.763 288.509 272.947 291.412C282.009 296.484 282.614 296.563 288.573 293.444C291.984 291.659 294.21 289.369 293.525 288.354C292.837 287.341 293.366 287.127 294.701 287.879C296.035 288.631 299.115 287.434 301.547 285.216C303.977 282.999 307.43 281.187 309.22 281.187C311.01 281.187 312.475 280.243 312.475 279.091C312.475 277.939 311.347 277.63 309.969 278.406C308.452 279.263 308.053 278.952 308.955 277.621C309.773 276.411 311.722 275.869 313.282 276.415C314.842 276.962 317.373 276.034 318.902 274.351C320.434 272.667 320.881 271.292 319.898 271.292C318.916 271.292 321.986 267.954 326.723 263.871C338.541 253.69 342.857 250.713 342.848 252.746C342.846 253.694 339.919 256.252 336.345 258.429C329.511 262.591 327.995 265.357 332.547 265.353C336.325 265.349 348.418 255.481 347.648 253.029C347.299 251.917 348.607 251.574 350.573 252.263C352.793 253.039 357.311 251.21 362.582 247.403C370.077 241.988 370.667 240.963 367.794 238.343C363.011 233.982 363.858 233.024 369.378 236.548C374.104 239.568 379.683 240.892 376.869 238.327C376.083 237.611 376.422 235.949 377.62 234.633C379.136 232.965 378.676 231.409 376.098 229.504C373.62 227.669 372.939 227.582 374.03 229.24C374.946 230.63 374.597 231.714 373.234 231.714C371.9 231.714 371.411 232.604 372.149 233.693C374.402 237.017 371.782 235.893 368.688 232.209C367.091 230.303 366.64 229.409 367.685 230.218C368.734 231.027 370.964 229.899 372.646 227.711C374.326 225.522 376.595 224.236 377.689 224.853C378.872 225.52 379.152 219.318 378.377 209.55C377.661 200.517 377.042 190.009 377.001 186.199C376.96 182.39 376.094 178.774 375.076 178.165C372.698 176.74 371.952 153.658 373.994 144.642C375.86 136.398 372.485 129.806 368.927 134.748C367.265 137.059 366.783 136.457 366.757 132.033C366.729 127.202 367.215 126.717 369.979 128.811C371.769 130.166 373.234 130.416 373.234 129.367C373.234 128.32 366.887 124.639 359.129 121.19C351.372 117.741 345.025 113.997 345.025 112.873C345.025 111.747 343.805 110.971 342.312 111.149C336.52 111.834 333.977 110.916 335.488 108.685C336.551 107.116 335.861 106.788 333.35 107.668C331.187 108.424 324.221 106.61 316.613 103.305C306.881 99.0778 304.526 97.3146 307.313 96.341C309.365 95.6227 311.609 95.781 312.301 96.6913C314.593 99.7052 329.835 107.401 329.835 105.543C329.835 104.542 327.639 102.693 324.952 101.437C317.75 98.0666 307.191 92.407 300.193 88.1642C296.804 86.1101 292.214 84.6912 289.996 85.0118C287.724 85.3423 286.55 84.7268 287.308 83.6087C289.684 80.1021 277.296 73.6806 271.788 75.5625ZM331.727 76.8646C328.973 80.0685 329.062 80.1041 332.923 77.3594C336.813 74.5929 337.009 74.7037 335.806 78.9563C334.732 82.7539 335.041 83.1259 337.627 81.1668C339.986 79.3818 340.142 78.1588 338.276 76.1067C335.192 72.7188 335.305 72.705 331.727 76.8646ZM281.733 79.3501C283.962 79.3581 282.964 80.4979 279.136 82.3185C271.267 86.0606 268.893 86.023 274.373 82.2433C276.69 80.6463 277.365 79.3383 275.872 79.3383C274.314 79.3383 273.845 78.327 274.77 76.9616C276.024 75.1133 276.573 75.1133 277.248 76.9616C277.727 78.2697 279.745 79.3442 281.733 79.3501ZM371.995 83.0171C371.995 85.1879 372.761 86.5316 373.698 86.0032C374.636 85.4729 375.404 86.3772 375.404 88.0098C375.404 89.6424 376.545 91.6213 377.943 92.4089C379.666 93.3806 380.022 92.7473 379.052 90.4439C378.114 88.2117 378.455 87.5171 380.05 88.4155C381.43 89.1932 382.098 88.748 381.599 87.3805C381.115 86.0586 380.054 85.2671 379.241 85.6213C378.427 85.9755 376.463 84.6457 374.877 82.6688C372.125 79.2354 371.995 79.2512 371.995 83.0171ZM147.558 85.5085C147.558 86.5969 146.581 86.9373 145.388 86.2644C144.194 85.5916 143.218 84.151 143.218 83.0626C143.218 81.9742 144.194 81.6338 145.388 82.3066C146.581 82.9795 147.558 84.4201 147.558 85.5085ZM264.13 86.6741C261.144 89.399 259.899 89.5672 257.699 87.5468C255.503 85.5303 255.713 85.2987 258.768 86.3594C260.969 87.1233 262.566 86.7552 262.566 85.4867C262.566 84.2816 263.751 83.2961 265.2 83.2961C266.849 83.2961 266.45 84.5606 264.13 86.6741ZM291.396 88.6431C294.72 89.2546 298.44 91.461 299.664 93.5468C301.625 96.8892 300.525 96.7131 290.365 92.0567C278.142 86.4564 273.808 83.6919 281.011 86.0883C283.397 86.8819 288.069 88.0316 291.396 88.6431ZM254.533 89.8918C255.299 91.7124 253.712 92.5316 249.418 92.5316C243.852 92.5316 243.587 92.2605 246.914 89.9551C251.681 86.6523 253.163 86.6404 254.533 89.8918ZM344.185 89.5949C344.812 90.5191 346.233 90.7645 347.344 90.1372C350.183 88.5382 349.864 87.9129 346.205 87.9129C344.467 87.9129 343.558 88.6708 344.185 89.5949ZM138.19 93.5626C137.498 95.1398 136.983 94.6708 136.879 92.3654C136.786 90.2796 137.298 89.1121 138.018 89.7691C138.739 90.4261 138.817 92.1339 138.19 93.5626ZM144.969 98.1893C144.301 98.7988 143.088 97.7005 142.272 95.7493C141.096 92.9294 141.343 92.7018 143.487 94.6411C144.971 95.9848 145.637 97.5818 144.969 98.1893ZM227.497 97.2098C223.789 99.1827 223.422 105.393 226.95 106.41C228.04 106.722 230.396 106.103 232.186 105.032C234.916 103.4 234.96 102.802 232.451 101.328C230.806 100.36 230.131 98.5792 230.952 97.37C232.744 94.7243 232.212 94.6985 227.497 97.2098ZM246.276 97.1266C247.035 98.2467 246.165 98.5792 244.234 97.9044C240.476 96.5884 239.788 95.1695 242.908 95.1695C244.032 95.1695 245.547 96.0501 246.276 97.1266ZM271.528 97.2869C274.533 98.7533 275.215 100.121 273.745 101.739C272.192 103.451 273.748 104.193 279.574 104.52L287.52 104.965L282.096 101.91C275.759 98.3397 276.499 98.5079 304.338 106.916C315.975 110.431 325.495 114.163 325.495 115.208C325.495 116.255 326.717 116.892 328.207 116.625C329.7 116.358 336.115 117.313 342.462 118.748C351.107 120.701 354.488 122.514 355.931 125.977C356.99 128.518 362.339 148.113 367.818 169.519C377.196 206.164 377.565 208.654 374.13 212.115C372.125 214.135 369.487 215.228 368.269 214.541C367.05 213.854 366.655 214.179 367.39 215.263C368.124 216.348 365.455 220.126 361.458 223.658C356.211 228.296 353.841 229.345 352.928 227.434C352.053 225.607 351.81 225.755 352.14 227.911C352.73 231.759 339.211 246.194 336.464 244.644C335.37 244.027 333.769 244.565 332.905 245.839C331.924 247.286 332.274 247.626 333.838 246.744C339.712 243.435 335.34 249.304 324.442 259.361C312.985 269.937 312.547 270.134 305.542 267.89C301.597 266.628 294.744 265.003 290.311 264.279C279.806 262.563 275.666 258.429 284.45 258.429C288.063 258.429 290.775 259.49 290.775 260.903C290.775 262.516 294.176 263.376 300.54 263.376C305.967 263.376 310.305 264.309 310.305 265.472C310.305 266.624 311.238 267.041 312.38 266.398C316.85 263.879 311.841 259.419 304.539 259.419C300.432 259.419 294.08 258.01 290.428 256.286C286.014 254.206 284.352 253.987 285.468 255.633C286.663 257.398 286.058 257.731 283.358 256.787C281.275 256.056 277.454 255.372 274.865 255.263C270.588 255.085 270.653 254.936 275.586 253.642C279.828 252.528 278.003 251.899 267.22 250.749C259.636 249.942 252.881 249.781 252.211 250.391C251.54 251.002 253.981 251.503 257.631 251.503C261.533 251.503 264.788 252.728 265.521 254.471C266.207 256.104 268.208 257.44 269.965 257.44C271.721 257.44 273.676 258.2 274.305 259.13C274.935 260.06 271.061 259.903 265.695 258.785C259.129 257.414 256.846 256.197 258.71 255.059C260.565 253.927 259.686 253.49 256.056 253.733C246.469 254.376 240.578 253.529 241.825 251.687C242.496 250.702 240.936 250.395 238.36 251.01C235.302 251.739 234.185 251.378 235.137 249.973C235.94 248.788 235.604 247.26 234.391 246.576C233.178 245.893 232.186 243.605 232.186 241.492C232.186 239.378 231.24 237.651 230.084 237.651C228.929 237.651 228.463 236.513 229.046 235.12C229.632 233.729 228.645 230.835 226.853 228.688C223.784 225.013 223.624 225.207 224.092 232.017C224.368 235.99 225.221 238.891 225.991 238.458C226.761 238.027 227.951 239.004 228.636 240.631C229.32 242.258 228.69 243.601 227.237 243.617C225.538 243.637 225.733 244.306 227.783 245.489C229.539 246.502 230.466 247.795 229.845 248.363C228.304 249.766 217.105 246.92 216.979 245.091C216.923 244.288 216.528 242.507 216.1 241.134C211.476 226.306 210.556 221.162 211.684 216.453C212.574 212.742 212.342 211.796 210.973 213.561C209.567 215.376 206.496 207.286 201.032 187.386C196.686 171.545 193.127 157.746 193.127 156.719C193.127 154.533 216.105 134.124 219.861 132.975C221.269 132.543 220.523 134.14 218.203 136.523C214.638 140.186 214.553 140.657 217.661 139.568C219.683 138.862 221.41 137.71 221.504 137.01C222.181 131.807 223.491 128.033 225.143 126.527C227.373 124.493 235.626 122.51 241.951 122.486C244.338 122.478 245.126 122.059 243.7 121.554C242.277 121.052 241.383 119.583 241.717 118.293C242.051 117.003 241.912 116.627 241.406 117.454C240.901 118.283 238.375 119.896 235.795 121.036C233.213 122.178 237.388 117.713 245.072 111.119C254.35 103.156 260.912 99.0798 264.601 98.9888C269.653 98.8621 269.766 98.6939 265.821 97.1484C263.434 96.2124 262.765 95.3852 264.337 95.308C265.905 95.2328 269.143 96.1214 271.528 97.2869ZM141.035 109.742C141.026 110.979 139.561 109.439 137.78 106.323C135.996 103.204 134.544 99.6418 134.551 98.407C134.56 97.1702 136.024 98.7098 137.806 101.827C139.59 104.945 141.041 108.507 141.035 109.742ZM382.372 99.9169C383.91 101.441 385.512 102.391 385.928 102.028C387.215 100.912 383.954 97.1484 381.701 97.1484C380.529 97.1484 380.831 98.3951 382.372 99.9169ZM255.513 104.991C251.106 108.907 250.664 111.001 254.248 111.001C255.639 111.001 256.143 110.421 255.366 109.712C254.589 109.004 255.646 107.296 257.714 105.917C259.782 104.538 260.988 103.006 260.392 102.513C259.797 102.02 257.603 103.135 255.513 104.991ZM554.778 109.517C554.177 110.878 553.684 109.764 553.684 107.043C553.684 104.322 554.177 103.21 554.778 104.569C555.381 105.931 555.381 108.157 554.778 109.517ZM285.35 107.043C281.813 108.43 281.688 108.769 284.68 108.883C286.698 108.959 288.953 108.131 289.69 107.043C291.233 104.767 291.157 104.767 285.35 107.043ZM390.301 107.043C389.583 108.751 391.39 112.111 394.56 114.959C397.59 117.68 398.922 118.489 397.52 116.755C396.119 115.022 395.613 113.019 396.398 112.303C397.184 111.587 396.759 111.001 395.455 111.001C394.15 111.001 392.738 109.441 392.317 107.538C391.687 104.69 391.327 104.603 390.301 107.043ZM305.423 112.311C306.916 112.861 309.357 112.861 310.848 112.311C312.341 111.763 311.119 111.313 308.135 111.313C305.151 111.313 303.932 111.763 305.423 112.311ZM221.336 113.757C221.336 114.185 219.822 115.065 217.969 115.715C216.037 116.389 215.167 116.057 215.927 114.937C217.201 113.055 221.336 112.154 221.336 113.757ZM247.419 115.901C245.707 117.78 245.542 118.916 246.983 118.916C249.605 118.916 252.662 115.162 251.158 113.789C250.611 113.292 248.93 114.242 247.419 115.901ZM212.698 117.972C214.991 120.492 214.857 120.782 211.878 119.74C209.899 119.047 208.317 119.465 208.317 120.684C208.317 121.889 207.549 122.874 206.611 122.874C205.674 122.874 204.908 121.093 204.908 118.916C204.908 114.222 208.85 113.744 212.698 117.972ZM132.368 120.895C132.368 121.984 133.409 122.874 134.683 122.874C135.979 122.874 136.419 124.546 135.681 126.666C134.954 128.752 135.378 131.029 136.619 131.73C139.093 133.123 139.679 127.081 137.561 122.047C136.109 118.594 132.368 117.765 132.368 120.895ZM302.71 125.366C293.162 126.446 279.761 127.44 272.927 127.576C261.227 127.808 260.428 128.138 259.194 133.263C258.471 136.258 256.982 138.705 255.884 138.705C254.784 138.705 253.886 140.985 253.886 143.769C253.886 146.554 252.977 148.321 251.866 147.696C250.755 147.068 249.234 147.462 248.483 148.568C247.734 149.675 248.11 150.579 249.32 150.579C251.473 150.579 243.78 171.361 237.585 182.289C234.862 187.09 234.868 187.933 237.629 188.9C239.575 189.581 240.248 191.303 239.375 193.375C238.416 195.654 238.779 196.28 240.497 195.312C242.123 194.396 243.036 195.35 243.036 197.956C243.036 200.196 244.071 202.03 245.334 202.03C246.597 202.03 246.936 203.059 246.085 204.316C245.102 205.763 245.49 206.061 247.146 205.127C249.145 204.001 249.162 203.002 247.215 200.865C245.818 199.329 245.197 198.073 245.835 198.073C246.473 198.073 251.516 203.849 257.041 210.912C264.992 221.071 266.648 224.499 264.979 227.345C262.978 230.752 264.718 236.204 267.691 235.84C268.453 235.747 269.319 235.739 269.618 235.824C274.728 237.249 277.534 236.909 276.362 235.003C275.46 233.537 276.007 233.598 277.871 235.177C281.36 238.13 285.081 238.476 283.181 235.672C282.443 234.583 283.282 233.693 285.044 233.693C286.809 233.693 290.04 233.165 292.225 232.517C295.597 231.52 295.706 231.688 292.945 233.635C290.346 235.47 290.782 235.606 295.115 234.318C298.099 233.43 307.864 232.982 316.815 233.325C332.2 233.913 335.815 231.874 324.41 229.04C322.023 228.449 324.06 228.415 328.936 228.969L337.805 229.975L343.395 218.475C346.472 212.152 350.213 203.16 351.712 198.496C353.594 192.642 355.017 190.804 356.306 192.559C357.422 194.079 357.584 192.791 356.71 189.367C355.716 185.489 355.998 184.056 357.578 184.947C358.862 185.671 360.62 185.222 361.484 183.947C362.465 182.501 362.115 182.16 360.551 183.043C359.038 183.894 358.044 183.146 358.044 181.157C358.044 179.039 359.21 178.268 361.299 179C365.34 180.413 365.338 179.869 361.271 170.989C359.466 167.049 357.317 164.435 356.497 165.181C355.679 165.929 352.29 176.471 348.967 188.607C345.643 200.744 342.091 211.434 341.075 212.36C340.057 213.288 335.403 214.598 330.733 215.271C326.061 215.944 321.752 217.129 321.155 217.905C319.916 219.516 297.101 225.777 292.474 225.777C290.793 225.777 283.133 219.894 275.449 212.703C267.767 205.511 258.784 197.34 255.487 194.544C250.455 190.276 249.711 188.394 250.857 182.833C253.489 170.035 259.615 154.481 261.429 155.985C262.436 156.82 262.548 156.375 261.674 154.992C260.802 153.611 261.175 149.473 262.505 145.798C265.272 138.153 267.401 137.237 297.164 130.877L317.655 126.5L335.833 143.981C353.711 161.178 356.938 162.715 344.478 148.105C340.997 144.025 338.673 140.684 339.313 140.684C339.953 140.684 338.074 138.318 335.134 135.426C332.196 132.535 330.243 129.757 330.794 129.254C332.411 127.782 326.074 122.848 322.936 123.137C321.361 123.282 312.258 124.285 302.71 125.366ZM353.737 137.221C353.761 141.595 354.371 142.79 355.642 140.959C357.348 138.504 356.51 130.79 354.535 130.79C354.08 130.79 353.72 133.685 353.737 137.221ZM407.954 134.748C407.954 135.836 408.989 136.727 410.252 136.727C411.514 136.727 411.946 135.836 411.208 134.748C410.471 133.659 409.438 132.769 408.91 132.769C408.383 132.769 407.954 133.659 407.954 134.748ZM74.5275 137.801C73.8201 139.481 72.7763 140.431 72.2078 139.913C71.6392 139.394 71.8172 138.019 72.6049 136.859C74.7445 133.701 75.9944 134.314 74.5275 137.801ZM293.193 140.769C289.328 143.987 285.422 146.621 284.511 146.621C279.485 146.621 272.919 156.834 272.554 165.217C272.315 170.675 272.893 173.251 274.023 171.787C275.084 170.415 275.273 174.371 274.464 180.979C273.461 189.154 273.743 192.185 275.414 191.243C276.718 190.507 278.348 191.241 279.036 192.874C279.722 194.509 281.453 195.435 282.879 194.936C284.307 194.435 287.399 195.449 289.753 197.186C292.106 198.924 292.659 199.695 290.982 198.904C288.892 197.914 288.458 198.233 289.599 199.919C290.721 201.571 291.982 201.722 293.455 200.378C294.66 199.28 297.073 198.882 298.817 199.491C301.426 200.406 301.475 200.938 299.095 202.491C296.986 203.869 297.307 204.055 300.273 203.172C302.513 202.507 305.442 202.788 306.783 203.8C310.463 206.574 320.992 204.027 323.498 199.755C324.716 197.681 326.664 196.519 327.828 197.174C328.991 197.831 329.674 197.188 329.346 195.745C329.019 194.305 330.024 193.365 331.582 193.656C335.405 194.374 343.718 188.898 341.071 187.406C339.914 186.755 338.41 187.553 337.725 189.179C337.041 190.806 335.29 192.136 333.836 192.136C332.382 192.136 333.832 189.625 337.056 186.555L342.92 180.973L339.417 165.282C337.49 156.65 335.034 148.742 333.96 147.709C331.026 144.89 331.545 150.549 335.236 161.643C340.079 176.2 339.443 178.588 327.995 188.871L317.475 198.32L301.747 194.859C288.742 191.995 285.665 190.545 283.968 186.478C282.842 183.773 282.417 180.377 283.024 178.933C283.632 177.486 283.289 176.305 282.263 176.305C281.236 176.305 279.806 174.161 279.086 171.541C278.363 168.921 277.276 165.581 276.668 164.121C276.059 162.658 280.761 156.252 287.117 149.884L298.674 138.306L308.905 141.474C320.704 145.127 329.798 145.681 321.155 142.218C318.171 141.025 314.962 139.968 314.024 139.871C313.085 139.774 311.62 138.804 310.769 137.716C307.656 133.738 300.048 135.06 293.193 140.769ZM557.659 146.069C555.316 149.401 555.251 149.395 556.431 145.964C557.119 143.971 557.813 140.409 557.976 138.048C558.271 133.762 558.274 133.762 559.204 138.153C559.717 140.572 559.022 144.134 557.659 146.069ZM126.149 138.064C126.368 138.961 125.782 141.292 124.849 143.243C123.916 145.194 123.762 147.347 124.504 148.026C125.248 148.705 125.858 147.723 125.858 145.845C125.858 143.967 126.834 142.98 128.028 143.653C129.221 144.326 130.198 143.54 130.198 141.907C130.198 140.275 129.198 138.375 127.974 137.686C126.752 136.996 125.93 137.166 126.149 138.064ZM371.476 145.632C370.988 149.441 370.207 152.558 369.743 152.558C369.276 152.558 368.894 149.441 368.894 145.632C368.894 141.822 369.675 138.705 370.628 138.705C371.583 138.705 371.965 141.822 371.476 145.632ZM294.163 148.404C293.499 149.384 296.37 150.098 300.545 149.991C304.72 149.882 308.135 149.081 308.135 148.208C308.135 146.021 295.658 146.198 294.163 148.404ZM319.833 152.332C325.195 157.436 325.679 158.991 324.375 166.917C323.028 175.119 322.281 175.964 314.48 178.096C307.352 180.043 305.182 179.886 300.49 177.082C292.906 172.551 290.595 167.934 292.01 160.141L293.208 153.547L289.899 158.494C285.194 165.528 285.598 167.845 293.026 176.396C299.362 183.694 300.043 183.955 310.889 183.272C321.606 182.596 322.344 182.186 325.838 174.981C327.86 170.811 329.585 165.793 329.674 163.832C329.85 159.945 319.159 146.621 315.867 146.621C314.749 146.621 316.533 149.192 319.833 152.332ZM444.109 153.052C443.508 154.414 443.016 153.3 443.016 150.579C443.016 147.858 443.508 146.746 444.109 148.105C444.713 149.467 444.713 151.693 444.109 153.052ZM202.538 151.074C199.372 155.696 200.043 158.027 204.252 157.022C207.238 156.312 207.789 155.352 206.212 153.618C205.003 152.291 204.656 150.618 205.441 149.902C206.227 149.186 206.277 148.6 205.552 148.6C204.825 148.6 203.471 149.714 202.538 151.074ZM172.864 157.01C172.263 158.372 171.77 157.258 171.77 154.537C171.77 151.816 172.263 150.704 172.864 152.063C173.467 153.425 173.467 155.651 172.864 157.01ZM399.274 152.441C399.274 153.466 400.239 154.847 401.42 155.512C402.648 156.205 403.013 155.411 402.273 153.65C400.83 150.223 399.274 149.595 399.274 152.441ZM297.828 153.983C296.337 154.469 295.115 155.603 295.115 156.506C295.115 158.564 300.286 157.982 301.263 155.813C302.263 153.593 301.035 152.938 297.828 153.983ZM306.688 155.431C306.688 157.02 307.501 157.861 308.497 157.301C309.491 156.741 310.305 158.117 310.305 160.357C310.305 162.597 309.27 164.431 308.007 164.431C306.744 164.431 306.406 163.402 307.256 162.146C308.322 160.576 307.853 160.412 305.759 161.621C301.625 164.008 298.685 163.978 296.775 161.528C295.81 160.289 295.183 160.651 295.183 162.452C295.183 170.449 307.041 175.794 314.382 171.104C319.195 168.029 320.975 155.892 316.943 153.62C315.743 152.944 315.383 155.174 316.071 159.037C317.505 167.093 312.937 171.399 304.908 169.562C297.871 167.952 297.767 164.413 304.789 165.575C312.252 166.81 316.099 160.309 310.596 155.768C307.339 153.078 306.688 153.023 306.688 155.431ZM242.578 159.535C241.908 161.684 240.697 165.223 239.89 167.4C239.08 169.576 240.009 168.856 241.951 165.797C243.893 162.739 245.102 159.199 244.64 157.932C244.175 156.664 243.249 157.386 242.578 159.535ZM56.3518 166.41C56.3518 169.048 56.1196 169.048 54.2491 166.41C53.0925 164.777 52.1464 162.106 52.1464 160.473C52.1464 157.836 52.3786 157.836 54.2491 160.473C55.4057 162.106 56.3518 164.777 56.3518 166.41ZM374.319 160.473C375.057 161.562 376.09 162.452 376.617 162.452C377.144 162.452 377.574 161.562 377.574 160.473C377.574 159.385 376.539 158.494 375.276 158.494C374.013 158.494 373.581 159.385 374.319 160.473ZM553.767 163.936C553.137 166.931 552.204 168.237 551.692 166.84C550.77 164.322 552.421 158.494 554.057 158.494C554.526 158.494 554.396 160.942 553.767 163.936ZM65.0642 168.448C61.5684 174.405 60.2317 172.183 63.4932 165.836C64.9731 162.957 66.4921 161.415 66.8675 162.407C67.2429 163.4 66.4313 166.119 65.0642 168.448ZM34.0316 166.782C33.3393 168.359 32.8251 167.89 32.7209 165.585C32.6276 163.499 33.1397 162.332 33.8601 162.989C34.5806 163.646 34.6587 165.353 34.0316 166.782ZM203.393 166.568C204.161 169.244 205.144 170.142 205.687 168.66C206.207 167.231 205.604 165.124 204.341 163.972C202.731 162.504 202.449 163.278 203.393 166.568ZM399.341 163.442C399.341 164.53 400.287 166.756 401.444 168.389C402.6 170.022 403.546 170.467 403.546 169.378C403.546 168.29 402.6 166.064 401.444 164.431C400.287 162.799 399.341 162.353 399.341 163.442ZM375.827 171.357C375.871 174.623 376.357 175.719 376.908 173.793C377.459 171.868 377.422 169.196 376.828 167.857C376.233 166.517 375.784 168.092 375.827 171.357ZM539.588 172.842C538.987 174.203 538.494 173.089 538.494 170.368C538.494 167.647 538.987 166.535 539.588 167.894C540.191 169.256 540.191 171.482 539.588 172.842ZM175.939 171.522C176.043 173.827 176.557 174.296 177.249 172.719C177.876 171.29 177.798 169.582 177.078 168.925C176.357 168.268 175.845 169.436 175.939 171.522ZM28.8388 176.305C28.2139 178.481 27.3285 180.262 26.8707 180.262C26.415 180.262 26.0396 178.481 26.0396 176.305C26.0396 174.128 26.9249 172.347 28.0056 172.347C29.0884 172.347 29.4616 174.128 28.8388 176.305ZM236.698 173.669C236.604 174.941 235.964 177.613 235.276 179.605C234.089 183.051 234.152 183.057 236.515 179.693C237.885 177.747 238.523 175.076 237.937 173.756C237.166 172.024 236.821 172.001 236.698 173.669ZM550.318 177.456C549.594 179.178 549.001 181.582 549.001 182.799C549.001 184.412 548.337 184.406 546.543 182.77C543.702 180.179 545.518 174.326 549.166 174.326C550.527 174.326 551.043 175.731 550.318 177.456ZM204.148 181.416C204.252 183.722 204.767 184.191 205.459 182.613C206.086 181.185 206.008 179.477 205.287 178.82C204.567 178.163 204.055 179.33 204.148 181.416ZM423.143 181.369C423.143 183.065 422.152 183.894 420.939 183.211C419.726 182.526 419.294 181.139 419.982 180.126C421.841 177.381 423.143 177.892 423.143 181.369ZM57.1677 183.316C56.4603 184.996 55.4166 185.946 54.848 185.427C54.2795 184.909 54.4575 183.534 55.2452 182.374C57.3847 179.216 58.6346 179.829 57.1677 183.316ZM458.062 188.348L455.968 193.125L455.829 188.014C455.756 185.202 456.405 182.251 457.275 181.458C459.853 179.109 460.319 183.199 458.062 188.348ZM277.068 186.571C276.375 188.148 275.861 187.679 275.757 185.374C275.664 183.288 276.176 182.121 276.896 182.778C277.617 183.435 277.695 185.142 277.068 186.571ZM31.8616 188.55C31.1694 190.127 30.6551 189.658 30.5509 187.353C30.4576 185.267 30.9697 184.1 31.6902 184.757C32.4106 185.414 32.4887 187.121 31.8616 188.55ZM546.399 190.584C546.758 192.27 545.781 196.489 544.229 199.958L541.406 206.267V196.232C541.406 190.424 542.32 186.476 543.576 186.858C544.77 187.22 546.039 188.896 546.399 190.584ZM178.441 196.094C178.441 199.903 178.888 201.462 179.432 199.557C179.979 197.651 179.979 194.536 179.432 192.631C178.888 190.725 178.441 192.284 178.441 196.094ZM461.515 194.487C460.823 196.064 460.308 195.595 460.204 193.29C460.111 191.204 460.623 190.036 461.343 190.693C462.064 191.35 462.142 193.058 461.515 194.487ZM535.248 196.588C534.647 197.95 534.154 196.836 534.154 194.115C534.154 191.394 534.647 190.282 535.248 191.641C535.851 193.003 535.851 195.229 535.248 196.588ZM415.945 200.424C415.253 202.001 414.739 201.532 414.635 199.226C414.542 197.141 415.054 195.973 415.774 196.63C416.495 197.287 416.573 198.995 415.945 200.424ZM533.124 204.381C532.431 205.959 531.917 205.49 531.813 203.184C531.72 201.098 532.232 199.931 532.952 200.588C533.673 201.245 533.751 202.953 533.124 204.381ZM56.4191 204.999C57.9771 206.711 58.1876 207.967 56.916 207.967C55.7052 207.967 54.1515 206.631 53.4636 204.999C52.7779 203.366 52.5544 202.03 52.9667 202.03C53.379 202.03 54.9327 203.366 56.4191 204.999ZM98.9678 205.493C100.554 207.399 101.882 210.071 101.919 211.43C102.023 215.174 98.1063 214.391 96.9736 210.441C96.2966 208.074 95.8908 208.543 95.6977 211.925C95.5392 214.646 94.5866 218.06 93.5776 219.512C90.34 224.168 89.0033 216.985 91.6463 209.135C94.374 201.027 94.9924 200.718 98.9678 205.493ZM274.501 207.967C276.66 210.144 278.917 211.925 279.513 211.925C280.11 211.925 278.83 210.144 276.671 207.967C274.511 205.79 272.255 204.009 271.658 204.009C271.061 204.009 272.342 205.79 274.501 207.967ZM106.328 206.497C106.328 206.776 107.285 210.045 108.455 213.763C109.885 218.311 109.844 221.331 108.329 222.995C105.595 225.999 110.16 233.693 114.678 233.693C116.321 233.693 117.126 234.922 116.482 236.451C115.844 237.967 117.827 241.306 120.887 243.872C124.74 247.1 126.752 247.771 127.427 246.049C128.909 242.26 132.351 245.204 130.983 249.093C130.053 251.742 130.259 251.891 131.921 249.766C133.093 248.266 135.198 247.684 136.595 248.471C138.424 249.502 138.147 250.565 135.61 252.257C132.377 254.412 132.411 254.883 136.029 257.869C139.765 260.952 139.984 260.79 140.113 254.832C140.249 248.527 134.824 242.297 124.773 237.217C120.882 235.25 120.741 235.363 123.41 238.316C125.975 241.149 125.899 241.609 122.868 241.609C120.893 241.609 119.348 240.006 119.348 237.957C119.348 235.949 117.395 232.694 115.008 230.725C112.621 228.756 110.683 225.722 110.701 223.986C110.729 221.271 111.018 221.238 112.754 223.741C113.865 225.342 115.557 225.888 116.518 224.954C117.478 224.02 117.044 222.858 115.551 222.374C114.008 221.871 112.838 218.149 112.838 213.74C112.838 208.169 111.922 205.988 109.583 205.988C107.793 205.988 106.328 206.216 106.328 206.497ZM466.51 212.536C466.527 213.417 465.566 213.587 464.373 212.914C463.179 212.242 462.218 210.185 462.235 208.345C462.266 205.462 462.561 205.408 464.373 207.967C465.529 209.6 466.491 211.656 466.51 212.536ZM540.506 214.112C539.362 216.718 538.364 217.81 538.288 216.54C538.106 213.451 540.634 207.591 541.721 208.585C542.196 209.018 541.649 211.503 540.506 214.112ZM64.1051 219.332C62.7554 226.112 62.1912 226.25 59.2249 220.515C57.0701 216.354 57.1634 215.72 59.7891 216.639C63.6473 217.988 63.8599 215.647 60.2165 211.921C57.9099 209.562 58.0704 209.538 61.2972 211.765C63.7514 213.459 64.7409 216.128 64.1051 219.332ZM255.103 217.531C257.1 220.616 260.214 223.139 262.021 223.139C264.864 223.139 264.886 222.848 262.175 220.994C260.452 219.815 258.402 217.294 257.616 215.388C256.833 213.482 255.129 211.925 253.832 211.925C252.43 211.925 252.946 214.203 255.103 217.531ZM359.129 217.862C358.392 218.95 358.823 219.841 360.086 219.841C361.349 219.841 362.384 218.95 362.384 217.862C362.384 216.773 361.955 215.883 361.427 215.883C360.9 215.883 359.867 216.773 359.129 217.862ZM462.988 218.851C463.674 220.484 463.394 221.819 462.368 221.819C461.339 221.819 459.935 220.484 459.247 218.851C458.561 217.218 458.841 215.883 459.868 215.883C460.896 215.883 462.3 217.218 462.988 218.851ZM468.025 220.213C467.332 221.79 466.818 221.321 466.714 219.015C466.621 216.93 467.133 215.762 467.853 216.419C468.574 217.076 468.652 218.784 468.025 220.213ZM75.9488 227.402C78.7763 229.674 78.7828 229.935 76.0009 229.381C71.6349 228.514 67.2689 224.616 67.2689 221.582C67.2689 219.759 68.0024 219.854 69.9814 221.936C71.4743 223.503 74.1586 225.965 75.9488 227.402ZM175.973 224.562C174.461 226.223 175.175 227.703 178.362 229.517C182.414 231.825 182.744 231.722 181.413 228.558C180.016 225.237 180.177 225.221 183.898 228.292C187.624 231.368 187.895 231.33 188.197 227.687C188.373 225.548 187.845 223.731 187.025 223.646C186.205 223.563 183.866 223.203 181.83 222.845C179.792 222.488 177.158 223.26 175.973 224.562ZM538.119 224.293C538.071 227.873 534.282 232.804 532.694 231.354C531.95 230.675 532.62 228.253 534.183 225.969C537.47 221.17 538.164 220.876 538.119 224.293ZM271.246 226.525C271.246 226.935 269.538 228.494 267.448 229.988C264.007 232.448 263.931 232.379 266.628 229.24C269.464 225.943 271.246 224.897 271.246 226.525ZM274.201 232.703C273.513 234.336 272.567 235.672 272.098 235.672C271.63 235.672 271.246 234.336 271.246 232.703C271.246 231.071 272.192 229.735 273.348 229.735C274.503 229.735 274.887 231.071 274.201 232.703ZM522.944 239.074C520.594 242.414 520.529 242.408 521.712 238.973C522.4 236.98 523.075 233.863 523.213 232.046C523.441 229.072 523.563 229.082 524.444 232.147C524.982 234.017 524.307 237.134 522.944 239.074ZM76.8775 238.298C75.1177 242.481 71.7564 240.752 72.7221 236.159C73.1192 234.259 73.5206 232.302 73.6117 231.813C73.705 231.322 74.7879 231.843 76.0204 232.967C77.2529 234.091 77.6392 236.489 76.8775 238.298ZM450.934 236.713C450.266 237.322 449.053 236.224 448.237 234.273C447.061 231.453 447.308 231.225 449.452 233.165C450.936 234.508 451.602 236.105 450.934 236.713ZM94.732 250.341C94.4152 251.335 92.5707 252.36 90.6286 252.619C88.6865 252.878 87.5342 252.057 88.0659 250.795C88.5975 249.53 87.0699 244.943 84.6742 240.599L80.3148 232.703L87.8098 240.619C91.9306 244.973 95.0467 249.348 94.732 250.341ZM189.714 237.847C191.437 239.525 190.773 239.519 187.16 237.823C184.475 236.564 182.277 236.351 182.277 237.35C182.277 238.349 180.324 239.634 177.937 240.203C173.129 241.349 172.3 239.626 176.028 236.226C178.838 233.663 186.324 234.548 189.714 237.847ZM340.685 236.661C339.198 238.294 338.66 239.63 339.489 239.63C340.318 239.63 342.46 238.294 344.25 236.661C346.04 235.029 346.578 233.693 345.445 233.693C344.313 233.693 342.171 235.029 340.685 236.661ZM363.567 245.147C362.972 245.689 361.848 244.614 361.067 242.758C359.819 239.794 358.828 240.059 352.878 244.945C346.787 249.948 346.865 249.758 353.637 243.041C360.88 235.86 361.232 235.741 362.907 239.869C363.864 242.23 364.161 244.605 363.567 245.147ZM457.863 238.399C457.863 238.808 456.155 240.368 454.065 241.862C450.624 244.322 450.548 244.252 453.245 241.114C456.081 237.817 457.863 236.77 457.863 238.399ZM461.013 243.771C459.104 247.138 457.049 249.441 456.444 248.891C455.356 247.899 461.875 237.651 463.594 237.651C464.084 237.651 462.923 240.405 461.013 243.771ZM90.1924 248.125C91.0084 250.076 92.2214 251.175 92.8897 250.565C93.5581 249.958 92.8919 248.361 91.4076 247.017C89.2637 245.078 89.0163 245.305 90.1924 248.125ZM356.623 248.62C355.916 250.3 354.872 251.25 354.303 250.731C353.735 250.213 353.913 248.837 354.7 247.678C356.84 244.519 358.09 245.133 356.623 248.62ZM204.762 253.65C209.067 253.126 213.401 253.919 211.016 254.796C209.517 255.348 208.829 256.597 209.491 257.57C210.15 258.544 207.792 257.824 204.25 255.969C200.707 254.115 198.341 251.812 198.995 250.85C199.646 249.888 200.9 250.163 201.779 251.461C202.657 252.758 204.001 253.743 204.762 253.65ZM443.808 261.352C437.958 266.768 432.622 270.655 431.953 269.986C431.285 269.317 431.964 268.371 433.464 267.884C434.963 267.396 435.545 266.044 434.757 264.88C433.967 263.717 434.295 263.313 435.484 263.984C436.673 264.653 440.922 262.12 444.925 258.352C448.929 254.584 452.709 251.503 453.325 251.503C453.942 251.503 449.658 255.936 443.808 261.352ZM294.612 255.793C295.875 256.945 298.186 257.495 299.753 257.02C301.378 256.525 300.393 255.629 297.459 254.928C293.85 254.068 293.002 254.325 294.612 255.793ZM323.047 256.945C320.35 260.084 320.426 260.153 323.867 257.693C327.483 255.107 328.63 253.482 326.845 253.482C326.395 253.482 324.685 255.039 323.047 256.945ZM438.98 256.12C439.589 257.572 438.717 258.76 437.042 258.76C433.791 258.76 433.064 256.967 435.44 254.802C437.422 252.993 437.708 253.1 438.98 256.12ZM223.914 258.093C225.501 259.541 228.257 260.365 230.036 259.921C232.651 259.272 232.709 259.476 230.338 260.994C227.692 262.686 214.827 258.795 214.827 256.306C214.827 254.39 221.235 255.651 223.914 258.093ZM307.05 256.894C309.437 257.428 312.523 258.704 313.909 259.727C315.47 260.881 316.906 260.885 317.683 259.739C318.972 257.837 311.75 255.358 305.965 255.718C304.145 255.831 304.624 256.349 307.05 256.894ZM111.669 269.808C116.529 276.188 117.36 277.906 113.819 274.26C102.288 262.387 99.8835 259.419 101.8 259.419C102.874 259.419 107.313 264.095 111.669 269.808ZM0.0325495 322.249L0 384.09L138.335 383.84C265.584 383.609 275.106 383.365 257.141 380.809C246.4 379.277 229.652 377.832 219.922 377.595C210.135 377.355 202.768 376.368 203.432 375.384C204.126 374.355 199.923 374.175 193.455 374.959C187.207 375.713 182.277 375.527 182.277 374.535C182.277 373.014 171.738 371.579 142.133 369.074C138.552 368.771 129.764 367.892 122.603 367.119C115.442 366.347 104.549 365.619 98.3971 365.502C92.2431 365.385 88.1505 364.76 89.3028 364.111C90.455 363.464 79.7593 361.823 65.5395 360.465L39.68 358L29.3141 329.982C23.6136 314.573 17.2143 298.403 15.0921 294.049C12.9721 289.696 9.66937 281.681 7.75546 276.239C0.59023 255.868 0.0672689 258.991 0.0325495 322.249ZM324.251 268.282C321.951 269.867 321.046 271.181 322.24 271.199C325.464 271.247 330.976 267.714 329.613 266.473C328.965 265.88 326.552 266.695 324.251 268.282ZM420.973 270.061C420.973 270.471 419.266 272.03 417.176 273.524C413.734 275.984 413.658 275.915 416.356 272.776C419.192 269.479 420.973 268.433 420.973 270.061ZM429.653 271.937C429.653 272.291 427.314 274.585 424.456 277.033C420.637 280.306 418.825 280.84 417.612 279.051C416.631 277.603 416.861 277.124 418.178 277.866C419.396 278.553 422.141 277.353 424.274 275.202C427.937 271.512 429.653 270.471 429.653 271.937ZM274.629 276.348C278.773 279.376 278.771 279.398 274.501 277.605C272.114 276.603 268.696 275.289 266.906 274.684C264.093 273.734 264.111 273.562 267.034 273.427C268.893 273.342 272.311 274.656 274.629 276.348ZM366.724 281.187C366.724 282.275 365.016 283.152 362.927 283.136C359.68 283.11 359.602 282.825 362.384 281.187C366.479 278.772 366.724 278.772 366.724 281.187ZM125.17 287.495C124.478 289.073 123.964 288.604 123.859 286.298C123.766 284.212 124.278 283.045 124.999 283.702C125.719 284.359 125.797 286.067 125.17 287.495ZM418.803 284.038C418.803 284.519 417.827 285.461 416.633 286.134C415.44 286.807 414.463 286.413 414.463 285.261C414.463 284.109 415.44 283.165 416.633 283.165C417.827 283.165 418.803 283.557 418.803 284.038ZM345.567 288.433C344.076 288.983 341.635 288.983 340.142 288.433C338.651 287.885 339.871 287.436 342.855 287.436C345.838 287.436 347.06 287.885 345.567 288.433ZM130.198 294.239C130.198 292.373 131.222 291.425 132.474 292.13C134.05 293.018 134.056 294.174 132.492 295.892C131.25 297.255 130.877 298.957 131.663 299.674C132.448 300.39 132.611 300.976 132.023 300.976C131.435 300.976 128.588 298.534 125.693 295.548C120.956 290.66 120.919 290.493 125.316 293.875C129.77 297.303 130.198 297.334 130.198 294.239ZM182.277 297.394C182.277 299.996 177.345 298.367 176.264 295.409C175.735 293.962 176.728 293.521 178.84 294.259C180.73 294.922 182.277 296.331 182.277 297.394ZM399.994 301.197C396.583 304.308 395.042 304.718 393.777 302.848C392.751 301.334 392.976 300.861 394.352 301.637C397.47 303.396 402.181 297.778 400.226 294.631C398.944 292.565 399.206 292.553 401.582 294.566C404.048 296.652 403.785 297.74 399.994 301.197ZM335.151 296.877C334.018 297.889 330.16 299.232 326.58 299.863C320.487 300.938 320.558 300.829 327.665 298.176C337.002 294.689 337.751 294.56 335.151 296.877ZM143.485 305.428C147.412 310.055 148.636 312.279 146.204 310.371C143.771 308.464 140.972 307.573 139.982 308.393C138.991 309.212 138.923 308.711 139.828 307.282C140.787 305.769 139.887 303.085 137.669 300.851C135.577 298.743 134.423 297.018 135.104 297.018C135.786 297.018 139.557 300.802 143.485 305.428ZM314.712 303.319C309.248 305.163 306.937 304.342 309.005 301.292C309.721 300.234 312.434 299.875 315.029 300.495L319.751 301.619L314.712 303.319ZM119.138 307.765C118.567 308.286 116.807 306.748 115.225 304.35C112.48 300.18 112.528 300.139 116.265 303.402C118.415 305.282 119.708 307.245 119.138 307.765ZM303.795 304.933C307.762 307.271 304.336 307.271 298.37 304.933C295.508 303.811 295.139 303.196 297.285 303.125C299.075 303.063 302.005 303.879 303.795 304.933ZM214.827 311.507C214.827 312.012 213.483 312.895 211.843 313.47C209.829 314.175 208.859 312.992 208.859 309.829C208.859 305.856 209.311 305.557 211.843 307.866C213.483 309.362 214.827 311.001 214.827 311.507ZM283.677 312.065C282.957 312.722 281.084 312.794 279.52 312.222C277.788 311.591 278.302 311.121 280.83 311.026C283.118 310.941 284.398 311.408 283.677 312.065ZM203.356 315.323C202.816 316.684 203.955 319.577 205.886 321.754C209.352 325.655 209.334 325.661 204.665 322.063C202.061 320.056 200.457 317.161 201.099 315.631C202.547 312.192 204.717 311.895 203.356 315.323ZM211.628 320.383C210.962 320.992 209.211 320.385 207.737 319.031C205.611 317.076 205.86 316.85 208.952 317.923C211.092 318.667 212.296 319.773 211.628 320.383ZM226.636 318.602C227.306 319.587 225.898 319.93 223.509 319.36C218.442 318.151 217.802 316.807 222.293 316.807C224.014 316.807 225.967 317.614 226.636 318.602ZM218.082 322.744C217.344 323.832 215.764 324.723 214.571 324.723C213.377 324.723 213.004 323.832 213.742 322.744C214.479 321.655 216.059 320.765 217.253 320.765C218.446 320.765 218.819 321.655 218.082 322.744ZM277.168 329.876C276.447 330.533 274.574 330.604 273.01 330.032C271.278 329.401 271.793 328.932 274.321 328.837C276.608 328.752 277.888 329.219 277.168 329.876ZM363.832 333.54C363.832 335.126 363.001 335.955 361.987 335.383C360.974 334.811 360.705 333.515 361.393 332.502C363.146 329.913 363.832 330.204 363.832 333.54ZM127.44 377.369C126.719 378.026 124.847 378.098 123.282 377.526C121.551 376.894 122.065 376.425 124.593 376.33C126.88 376.245 128.16 376.712 127.44 377.369Z" fill="white"/>
</svg>
