<svg width="562" height="384" viewBox="0 0 562 384" fill="none" xmlns="http://www.w3.org/2000/svg">
<path fill-rule="evenodd" clip-rule="evenodd" d="M0 29.9607C0 46.5498 0.844117 59.2649 1.90523 58.6658C2.95332 58.0765 12.141 50.4217 22.3224 41.6535C41.7111 24.9617 48.9132 14.0282 46.4373 5.04256C45.1223 0.270914 44.6904 0.181928 22.5503 0.181928H0V29.9607ZM381.371 1.61164C385.492 2.07833 388.424 3.54166 388.424 5.13353C388.424 6.63245 389.4 8.40822 390.594 9.08057C391.824 9.77466 392.764 8.1116 392.764 5.24229C392.764 0.557648 392.078 0.205657 383.541 0.498324C375.547 0.773193 375.259 0.921503 381.371 1.61164ZM398.265 1.75995C397.627 2.34331 397.104 4.82108 397.104 7.26722C397.104 9.71534 395.893 12.0844 394.411 12.5352C392.414 13.1423 392.595 14.1528 395.103 16.4388C397.488 18.612 399.569 18.9739 402.136 17.6648C404.531 16.4427 405.784 16.5179 405.784 17.8803C405.784 19.0233 407.368 19.9567 409.303 19.9567C411.727 19.9567 412.209 19.1855 410.85 17.4848C409.763 16.1263 408.624 12.7587 408.32 10.0021C407.88 6.02339 408.789 4.92589 412.743 4.67277C417.2 4.38802 417.31 4.56599 413.802 6.38329C410.579 8.0503 410.369 8.94412 412.612 11.41C415.03 14.0618 415.498 14.0045 416.69 10.9097C417.508 8.7879 419.454 13.8522 421.644 23.8068C423.629 32.8221 424.721 40.9832 424.07 41.9422C423.419 42.9013 423.933 43.6864 425.211 43.6864C426.715 43.6864 427.045 46.6486 426.147 52.0907C423.951 65.3813 421.566 64.8711 422.308 51.268C422.738 43.372 422.067 38.3709 420.459 37.4633C419.07 36.6822 418.033 32.8656 418.155 28.9839C418.276 25.1021 417.495 21.4299 416.419 20.8248C415.342 20.2197 414.463 20.6666 414.463 21.8175C414.463 22.9684 413.585 23.6902 412.51 23.4173C411.436 23.1463 410.675 23.8128 410.818 24.9004C410.963 25.988 412.573 26.6188 414.398 26.3004C416.764 25.8891 416.959 26.1956 415.08 27.3643C413.04 28.6338 413.172 30.291 415.663 34.6691C417.436 37.7836 418.315 42.1973 417.619 44.4813C416.605 47.7956 416.807 48.0329 418.628 45.6639C421.494 41.9343 421.657 45.5966 418.803 49.6188C417.276 51.7743 416.69 51.8771 416.666 49.9965C416.649 48.5727 415.657 47.9577 414.463 48.6301C413.27 49.3024 412.309 51.8019 412.326 54.1848C412.348 57.0581 412.936 57.6909 414.068 56.0654C415.208 54.432 416.725 56.0021 418.617 60.7698C420.793 66.2533 421.948 67.2895 423.56 65.1993C424.986 63.3504 425.25 65.1796 424.378 70.8767C423.671 75.498 423.974 79.2809 425.053 79.2809C428.015 79.2809 430.018 69.7831 427.876 65.8915C426.841 64.0109 426.719 60.2477 427.607 57.5287C428.965 53.3641 429.28 53.2079 429.603 56.54C430.037 61.0288 430.682 63.995 432.999 72.16C434.162 76.2613 433.919 77.4953 432.14 76.4927C430.686 75.674 429.653 76.3464 429.653 78.1142C429.653 79.7773 427.626 84.6814 425.148 89.0141C421.605 95.2095 421.162 97.6497 423.083 100.446C425.257 103.614 425.38 103.531 424.226 99.6647C423.215 96.2793 423.818 95.3934 426.993 95.6109C430.037 95.8205 430.873 97.1553 430.324 100.932C429.675 105.413 429.822 105.534 431.641 102.022C432.767 99.8467 433.757 94.1357 433.841 89.3324C434.054 77.1354 436.402 80.5702 437.32 94.4185C437.736 100.733 439.112 106.214 440.377 106.598C441.64 106.981 442.673 109.388 442.673 111.945C442.673 114.504 443.645 118.923 444.832 121.769C446.019 124.615 447.44 130.679 447.992 135.245C448.543 139.813 450.485 148.888 452.31 155.414C456.229 169.436 456.428 172.222 453.523 172.222C452.329 172.222 451.353 168.293 451.353 163.488C451.353 158.684 450.355 154.451 449.137 154.081C447.918 153.711 446.065 146.462 445.021 137.97C443.975 129.481 442.417 121.923 441.558 121.178C440.698 120.43 440.668 122.677 441.488 126.171C442.367 129.91 441.968 133.976 440.518 136.058C438.593 138.821 438.303 136.689 439.19 126.313C439.837 118.759 439.429 112.526 438.244 111.86C437.1 111.215 436.124 108.737 436.076 106.355C435.998 102.51 435.595 102.688 432.485 107.923C429.219 113.426 428.855 113.56 427.103 109.9C425.543 106.643 425.411 106.817 426.324 110.921C426.93 113.64 427.453 117.199 427.488 118.83C427.524 120.577 428.206 120.982 429.143 119.819C432.346 115.846 436.493 116.703 436.085 121.253C435.864 123.727 435.79 129.95 435.922 135.083C436.113 142.513 436.827 144.182 439.418 143.276C441.208 142.649 442.673 143.049 442.673 144.162C442.673 145.275 441.69 146.483 440.488 146.849C439.079 147.276 439.249 149.796 440.965 153.935C443.689 160.51 447.861 163.146 445.654 156.897C444.708 154.217 444.915 154.051 446.566 156.163C447.74 157.662 448.384 161.971 448 165.738C447.111 174.455 448.975 179.656 451.622 175.849C452.796 174.158 453.469 176.106 453.49 181.263C453.508 185.691 455.087 193.5 456.999 198.614L460.475 207.91L451.253 220.811C446.18 227.906 440.449 234.78 438.517 236.089C433.6 239.417 426.856 249.431 428.512 250.942C429.269 251.632 430.888 250.886 432.107 249.286C434.043 246.745 434.204 246.753 433.377 249.344C432.845 251.009 430.393 252.102 427.787 251.839C425.233 251.58 423.143 252.085 423.143 252.959C423.143 253.835 416.184 262.5 407.68 272.217C387.43 295.35 385.529 298.096 387.634 301.166C390.516 305.372 390.359 308.362 387.133 310.802C384.757 312.597 384.084 312.487 384.084 310.294C384.084 308.747 385.145 306.515 386.443 305.332C388.142 303.784 388.074 302.771 386.2 301.717C383.173 300.011 379.332 304.565 380.775 308.15C381.315 309.497 381.061 310.387 380.208 310.127C379.356 309.868 378.414 310.325 378.116 311.14C376.927 314.393 377.713 316.319 380.48 316.928C382.305 317.329 380.896 319.37 376.682 322.423C372.047 325.783 371.116 326.074 373.666 323.367C378.537 318.199 375.478 312.419 370.046 316.529C368.111 317.992 367.047 320.428 367.685 321.941C368.415 323.671 367.911 324.168 366.331 323.278C364.667 322.34 364.272 322.941 365.16 325.051C366.008 327.067 365.544 327.913 363.901 327.353C360.377 326.149 351.096 338.943 352.711 342.778C353.42 344.462 352.969 346.422 351.708 347.132C350.313 347.917 349.92 347.221 350.705 345.354C352.587 340.889 349.603 341.599 344.903 346.734C339.745 352.368 339.493 355.487 344.482 351.919C347.919 349.463 347.997 349.533 345.322 352.645C343.694 354.536 341.605 355.657 340.678 355.135C339.754 354.615 333.558 360.854 326.914 368.999L314.834 383.812H328.936C336.692 383.812 344.217 382.906 345.658 381.801C351.422 377.377 377.465 360.25 393.849 350.108C403.397 344.197 411.697 338.864 412.293 338.257C412.89 337.648 416.796 334.994 420.973 332.356C425.15 329.718 429.545 326.817 430.738 325.906C431.932 324.996 441.208 319.018 451.353 312.623C461.497 306.228 470.774 300.274 471.97 299.394C473.163 298.512 477.924 295.215 482.546 292.065L490.953 286.338L489.523 265.369C488.737 253.837 487.205 219.484 486.118 189.031C485.031 158.578 483.622 123.428 482.989 110.921C482.355 98.413 481.298 73.6372 480.645 55.8617C479.99 38.0881 478.846 18.2462 478.104 11.7719L476.752 0L438.09 0.351991C416.824 0.543806 398.903 1.17858 398.265 1.75995ZM542.491 2.47778C542.491 3.26679 544.566 5.23635 547.103 6.85591C550.831 9.23481 551.837 12.1951 552.356 22.2941C554.32 60.5839 554.515 71.8535 553.139 67.4161C552.295 64.6971 551.41 59.3579 551.173 55.5512L550.742 48.6301L547.632 57.5287C545.356 64.0366 545.067 68.5531 546.558 74.3372C548.606 82.2867 547.582 95.1007 544.9 95.1007C544.108 95.1007 543.683 91.3198 543.952 86.6965L544.442 78.2922L542.704 85.8125C540.632 94.7903 542.073 103.467 545.466 102.437C548.702 101.454 551.247 88.1558 550.086 78.2922C549.346 72.0216 549.544 71.4066 551.032 75.326C553.979 83.0876 553.604 93.6058 550.167 99.6114C548.435 102.635 547.569 106.418 548.242 108.016C548.982 109.77 548.185 110.921 546.232 110.921C544.453 110.921 542.307 108.917 541.465 106.471C540.441 103.495 538.598 110.531 535.899 127.729C533.681 141.868 529.689 165.004 527.028 179.143C524.366 193.282 522.118 209.883 522.033 216.033C521.946 222.181 521.313 226.896 520.622 226.508C519.935 226.12 518.203 232.656 516.775 241.034C515.347 249.411 512.828 264.274 511.174 274.062C502.032 328.178 498.595 347.929 497.241 354.15C495.664 361.386 490.319 364.656 461.66 375.916C455.99 378.145 451.353 380.832 451.353 381.89C451.353 383.08 471.011 383.812 503.031 383.812H554.708L558.362 376.826C561.711 370.429 562.017 354.257 561.999 185.054L561.978 0.268937L552.235 0.656522C546.875 0.868112 542.491 1.68876 542.491 2.47778ZM404.499 6.409C403.807 7.42937 404.421 9.56109 405.862 11.1451C407.708 13.172 407.765 14.0243 406.048 14.0243C404.709 14.0243 403.598 12.9129 403.581 11.5524C403.555 9.63624 403.147 9.65403 401.771 11.6295C400.621 13.2847 399.996 12.1358 399.996 8.35879C399.996 4.33265 400.886 2.84756 402.878 3.54364C404.462 4.09733 405.191 5.38664 404.499 6.409ZM131.283 18.349C126.509 24.9854 122.247 31.256 121.813 32.2882C121.167 33.8208 110.634 48.6756 99.7077 63.4611C92.5208 73.1864 65.3246 111.597 60.759 118.469C57.7753 122.959 54.6028 126.657 53.7066 126.687C52.8105 126.717 52.0792 127.593 52.0792 128.635C52.0792 129.677 44.8836 140.63 36.0865 152.976L20.096 175.422L24.3709 183.017C26.7231 187.196 30.564 192.482 32.9097 194.766C35.2533 197.049 40.2702 204.048 44.059 210.318C48.3599 217.437 52.0162 221.345 53.7956 220.724C55.3623 220.176 56.1196 220.502 55.4773 221.45C53.9605 223.686 62.7272 233.872 65.0447 232.565C66.019 232.017 67.4056 232.972 68.1261 234.687C70.1789 239.561 69.708 240.145 65.9887 237.333C63.593 235.519 63.9185 236.805 67.0563 241.539C69.5387 245.288 72.2208 249.69 73.0128 251.321C73.8049 252.953 79.0627 260.072 84.6981 267.141C90.3313 274.211 95.5892 281.917 96.379 284.266C97.1689 286.615 99.2434 289.615 100.988 290.934C102.731 292.253 104.158 294.527 104.158 295.987C104.158 297.446 106.174 300.675 108.637 303.161C113.834 308.403 129.313 330.132 135.623 341.043L139.963 348.546L157.322 347.494C166.87 346.914 185.912 345.489 199.637 344.328C229.888 341.767 269.471 338.649 288.605 337.32C296.363 336.782 313.608 335.318 326.929 334.069L351.146 331.797L365.44 304.217C373.301 289.048 379.097 275.698 378.318 274.549C377.535 273.396 377.928 273.04 379.197 273.754C381.901 275.276 386.864 263.708 384.809 260.677C384.04 259.546 384.379 259.164 385.562 259.83C386.742 260.495 389.335 257.932 391.321 254.135C395.58 245.998 395.782 244.679 392.482 246.536C390.989 247.378 390.44 246.844 391.08 245.169C391.657 243.659 393.736 242.684 395.702 243.004C397.666 243.322 399.274 242.421 399.274 240.997C399.274 239.573 401.205 235.126 403.566 231.111C407.793 223.921 405.994 218.27 401.643 225.078C399.53 228.389 399.402 228.39 399.339 225.12C399.276 221.809 401.507 220.813 407.411 221.511C408.904 221.689 410.273 220.68 410.453 219.274C410.636 217.866 410.926 215.381 411.098 213.749C411.269 212.118 412.706 211.042 414.288 211.358C416.091 211.718 416.685 210.795 415.883 208.887C415.177 207.21 415.308 205.839 416.171 205.839C417.497 205.839 423.779 195.108 424.276 191.997C424.363 191.453 426.583 187.894 429.206 184.087C435.286 175.266 435.208 172.428 428.633 163.6C425.686 159.642 423.92 156.402 424.708 156.402C425.498 156.402 424.248 155.002 421.93 153.29C419.615 151.577 418.927 150.733 420.407 151.415C422.173 152.228 422.653 151.605 421.807 149.596C421.097 147.913 419.754 146.97 418.816 147.496C416.742 148.665 405.797 135.944 405.751 132.311C405.731 130.879 404.664 128.372 403.375 126.74C401.418 124.261 401.242 124.357 402.299 127.338C403.099 129.592 402.707 130.418 401.229 129.586C399.946 128.862 399.397 126.523 400.011 124.383C400.812 121.593 400.252 120.802 398.03 121.579C396.316 122.178 394.934 121.502 394.934 120.064C394.934 118.635 393.046 115.91 390.739 114.007C388.328 112.018 387.102 109.23 387.853 107.444C388.623 105.619 388.257 104.848 386.968 105.575C384.77 106.813 375.404 96.926 375.404 93.3685C375.404 92.3263 374.671 91.1794 373.777 90.8156C372.883 90.4537 369.821 87.1374 366.974 83.4475C364.127 79.7575 362.836 77.3232 364.105 78.0391C365.372 78.753 367.041 77.5328 367.809 75.326C368.577 73.1191 370.101 71.8179 371.196 72.4329C372.29 73.0499 372.559 72.0691 371.795 70.2538C370.539 67.2737 370.172 67.3172 368.022 70.7106C364.598 76.113 361.154 75.2785 354.878 67.5268C348.709 59.9056 348.536 59.5062 351.389 59.5062C352.502 59.5062 354.036 61.2998 354.8 63.4908C355.562 65.6818 357.1 66.9593 358.218 66.3305C359.348 65.6937 358.797 63.8665 356.977 62.2054C353.229 58.7903 352.691 55.5512 355.874 55.5512C357.068 55.5512 358.044 56.8109 358.044 58.3533C358.044 59.8938 359.266 61.5291 360.757 61.9859C362.903 62.6444 362.881 63.4671 360.65 65.929C356.794 70.1905 361.076 72.2827 365.463 68.2822C369.313 64.7742 370.031 62.5871 366.724 64.4499C365.531 65.1222 364.554 64.4083 364.554 62.8659C364.554 61.3215 362.195 56.892 359.314 53.022C356.432 49.1521 354.724 45.3257 355.516 44.5189C356.311 43.7121 355.699 43.7141 354.158 44.5248C352.478 45.4088 351.921 47.6117 352.763 50.0321C353.7 52.7234 353.368 53.6173 351.767 52.7155C350.356 51.9206 349.332 52.8381 349.286 54.9402C349.223 57.7976 348.158 57.3468 343.992 52.6997C339.111 47.2617 338.484 42.2151 343.004 44.7601C344.115 45.385 345.025 45.0073 345.025 43.9197C345.025 42.8321 344.091 41.4162 342.95 40.7736C341.809 40.1309 341.422 38.3037 342.091 36.7138C342.761 35.1219 344.115 34.2756 345.103 34.8312C346.088 35.3869 347.459 35.0092 348.149 33.9908C349.935 31.3568 343.33 25.8891 338.361 25.8891C336.058 25.8891 334.42 24.7758 334.717 23.4173C335.136 21.511 328.676 21.1056 306.508 21.6474C290.695 22.033 277.756 21.5644 277.756 20.6053C277.756 19.6482 281.905 19.2112 286.978 19.6344C292.051 20.0595 295.449 19.6937 294.529 18.8236C293.612 17.9535 280.917 16.5416 266.32 15.6834C251.725 14.8271 230.016 13.2432 218.082 12.1654C131.689 4.3544 141.875 3.62867 131.283 18.349ZM256.598 19.3753C253.914 19.8459 249.518 19.8459 246.834 19.3753C244.149 18.9027 246.345 18.5171 251.716 18.5171C257.087 18.5171 259.283 18.9027 256.598 19.3753ZM404.699 25.8891C406.55 29.1519 409.045 31.8215 410.245 31.8215C411.443 31.8215 410.258 29.1519 407.611 25.8891C404.963 22.6263 402.468 19.9567 402.064 19.9567C401.663 19.9567 402.848 22.6263 404.699 25.8891ZM267.448 23.2432C265.957 23.793 263.516 23.793 262.023 23.2432C260.533 22.6955 261.752 22.2466 264.736 22.2466C267.719 22.2466 268.941 22.6955 267.448 23.2432ZM301.037 25.106C300.317 25.7625 298.444 25.8337 296.879 25.2622C295.148 24.6314 295.662 24.1628 298.19 24.0679C300.477 23.9828 301.758 24.4495 301.037 25.106ZM281.505 27.3327C277.003 27.7598 270.167 27.7539 266.316 27.3168C262.462 26.8798 266.146 26.5298 274.501 26.5377C282.855 26.5476 286.006 26.9036 281.505 27.3327ZM554.823 30.2158C554.131 31.7919 553.617 31.3232 553.513 29.0195C553.419 26.9352 553.931 25.7685 554.652 26.425C555.372 27.0815 555.45 28.7881 554.823 30.2158ZM337.523 29.7076C336.835 30.7201 337.267 32.1063 338.48 32.7905C339.693 33.4727 340.685 33.0891 340.685 31.9382C340.685 30.7873 341.718 29.8441 342.978 29.8441C344.298 29.8441 343.907 31.6178 342.056 34.0264C340.287 36.3262 339.361 39.4407 339.995 40.9476C340.63 42.4544 340.125 43.6864 338.875 43.6864C335.55 43.6864 333.739 40.21 336.31 38.7625C337.523 38.0802 338.515 36.5734 338.515 35.4186C338.515 34.1055 337.271 34.2538 335.21 35.8141C332.469 37.8864 332.124 37.7935 333.187 35.2683C333.893 33.5914 333.276 31.5486 331.818 30.728C330.008 29.7096 329.724 30.0576 330.92 31.8215C332.081 33.534 331.827 33.9335 330.171 32.9981C325.84 30.5599 327.439 27.8666 333.218 27.8666C336.271 27.8666 338.209 28.6951 337.523 29.7076ZM398.653 31.2303C398.1 32.1004 398.304 34.4536 399.104 36.4627C400.365 39.6207 400.921 39.7235 403.199 37.22C405.291 34.9242 405.198 33.8405 402.748 31.9876C401.051 30.7023 399.206 30.3622 398.653 31.2303ZM349.364 37.8706C349.364 39.0215 348.284 39.3557 346.962 38.6122C345.361 37.7105 345.029 38.6043 345.966 41.2956C346.739 43.5143 346.398 45.8794 345.207 46.5498C344.018 47.2201 343.592 49.0691 344.261 50.659C346.181 55.219 349.364 51.9582 349.364 45.4305C349.364 42.0253 350.278 40.0122 351.511 40.7063C352.739 41.3984 353.103 40.6055 352.363 38.8455C350.873 35.3098 349.364 34.8194 349.364 37.8706ZM407.849 41.8098C406.118 42.8084 405.551 43.6389 406.591 43.6567C407.632 43.6725 407.407 44.8709 406.087 46.3204C404.204 48.3868 404.729 48.8832 408.533 48.6281C411.198 48.4501 413.676 46.9037 414.04 45.1912C414.9 41.1611 411.857 39.5001 407.849 41.8098ZM316.581 50.1092C323.991 57.2084 324.774 58.7033 321.626 59.7494C319.577 60.4316 317.166 60.6017 316.272 60.1311C315.378 59.6585 314.645 60.1607 314.645 61.2464C314.645 62.332 317.82 63.0518 321.697 62.8461C327.157 62.5574 328.617 63.206 328.166 65.7194C327.845 67.5051 328.821 68.8399 330.336 68.6856C334.431 68.2684 353.978 88.1222 351.623 90.3073C350.443 91.4048 350.899 93.6691 352.765 95.9728C354.475 98.0848 355.874 98.9291 355.874 97.8514C355.874 96.7737 354.703 94.8239 353.27 93.5188C351.777 92.1583 351.606 91.1458 352.865 91.1458C354.075 91.1458 359.396 95.7929 364.691 101.472C369.986 107.151 376.064 113.412 378.195 115.386C380.328 117.359 381.476 119.855 380.746 120.929C380.017 122.004 380.714 122.639 382.296 122.34C383.876 122.042 384.924 122.91 384.626 124.269C384.327 125.629 384.885 126.519 385.863 126.246C388.669 125.467 410.123 148.722 410.123 152.544C410.123 154.433 408.659 156.491 406.869 157.118C405.078 157.743 403.629 159.396 403.646 160.791C403.67 162.562 404.312 162.432 405.784 160.357C406.94 158.726 407.88 158.281 407.869 159.369C407.832 163.195 397.974 192.132 397.002 191.261C396.461 190.777 395.834 193.551 395.606 197.425C395.381 201.299 394.404 205.001 393.436 205.65C392.471 206.298 391.401 209.943 391.063 213.749C390.722 217.556 389.557 220.951 388.472 221.293C387.387 221.635 387.035 223.192 387.693 224.754C388.35 226.314 387.701 227.592 386.252 227.592C384.522 227.592 384.082 229.292 384.976 232.535C385.796 235.519 385.41 237.479 383.997 237.479C382.71 237.479 382.122 238.165 382.691 239.002C384.355 241.458 375.803 271.626 372.995 273.208C371.585 274.003 371.06 276.141 371.826 277.962C375.026 285.565 365.908 291.043 345.025 294.062C341.097 294.63 340.498 294.359 342.855 293.082C344.645 292.111 350.035 290.726 354.833 290.007C366.648 288.235 369.369 286.368 368.525 280.604C367.831 275.854 367.592 275.791 360.496 278.448C353.594 281.035 353.411 281.345 357.241 283.989C361.994 287.27 359.631 287.829 353.548 284.863C350.569 283.41 346.741 283.519 340.45 285.235C332.608 287.377 331.998 287.952 335.257 290.125C338.502 292.287 337.801 292.87 329.511 294.897C324.319 296.164 319.093 297.624 317.9 298.138C316.706 298.654 317.627 297.673 319.942 295.961C322.259 294.248 325.432 292.848 326.994 292.848C328.557 292.848 329.835 292.008 329.835 290.982C329.835 289.368 323.9 291.223 304.88 298.785C302.493 299.734 298.275 301.09 295.508 301.798C290.732 303.022 290.676 303.228 294.423 305.844C297.995 308.336 297.721 308.488 291.57 307.442C284.398 306.224 269.076 311.411 269.076 315.057C269.076 316.147 267.123 316.574 264.736 316.005C262.349 315.437 260.396 315.749 260.396 316.701C260.396 317.652 258.931 317.919 257.141 317.294C255.349 316.667 253.886 317.234 253.886 318.555C253.886 319.876 252.484 320.466 250.772 319.866C249.058 319.267 247.341 319.637 246.959 320.685C246.575 321.735 242.646 322.718 238.225 322.87C233.807 323.021 230.698 323.893 231.316 324.806C231.937 325.718 231.466 326.465 230.272 326.465C229.079 326.465 227.562 325.668 226.902 324.695C225.366 322.431 231.772 320.128 235.094 321.747C239.069 323.685 225.574 312.279 214.909 304.685C209.584 300.895 206.082 299.056 207.128 300.6C208.62 302.807 208.139 303.068 204.875 301.818C202.59 300.946 199.034 300.291 196.968 300.369C193.949 300.479 193.737 299.989 195.883 297.865C197.742 296.022 199.374 295.834 201.264 297.244C202.755 298.356 203.977 298.48 203.977 297.521C203.977 296.562 202.024 294.666 199.637 293.307C197.063 291.844 195.297 291.65 195.297 292.832C195.297 293.928 193.719 294.826 191.788 294.826C189.395 294.826 188.629 296.034 189.373 298.632C190.184 301.462 189.601 302.138 187.101 301.262C184.979 300.521 184.282 300.893 185.215 302.269C186.092 303.562 189.779 303.997 194.251 303.335C199.146 302.611 201.807 303.005 201.807 304.454C201.807 305.684 200.307 306.691 198.476 306.691C195.818 306.691 195.614 307.489 197.467 310.646C200.904 316.499 196.996 315.445 189.77 308.571C185.124 304.152 183.609 300.984 184.102 296.706C184.677 291.709 184.033 290.871 179.619 290.871C176.785 290.871 173.096 289.759 171.423 288.399C168.83 286.291 168.812 286.445 171.299 289.435C176.236 295.374 172.829 294.66 167.465 288.632L162.418 282.961H169.22C173.202 282.961 175.468 283.782 174.682 284.938C173.944 286.026 174.865 286.916 176.724 286.916C178.584 286.916 180.107 285.977 180.107 284.828C180.107 283.681 182.518 285.237 185.463 288.288C189.837 292.821 190.833 293.184 190.888 290.281C190.95 287.013 181.032 277.236 177.505 277.092C176.67 277.056 171.38 273.064 165.751 268.217C160.122 263.37 154.692 259.868 153.69 260.433C151.661 261.574 146.288 257.349 145.939 254.337C145.815 253.277 144.741 252.114 143.554 251.752C140.106 250.706 142.12 257.564 146.026 260.167C148.729 261.968 148.972 263.083 147.048 264.837C145.123 266.591 145.142 267.141 147.124 267.141C148.556 267.141 149.728 266.113 149.728 264.857C149.728 263.562 151.607 264.123 154.068 266.152C156.455 268.12 158.407 270.928 158.407 272.391C158.407 275.741 152.7 275.876 150.348 272.579C149.378 271.221 138.32 261.056 125.773 249.992C113.227 238.928 103.282 229 103.674 227.926C104.067 226.854 103.208 225.314 101.767 224.501C99.9464 223.476 99.7077 223.874 100.984 225.802C102.548 228.169 102.277 228.177 99.1501 225.867C95.2485 222.982 93.9834 218.606 97.6484 220.67C98.8419 221.343 99.8184 220.504 99.8184 218.81C99.8184 214.611 103.603 214.896 104.833 219.187C105.378 221.092 105.84 219.978 105.86 216.715C105.896 210.488 102.579 198.772 102.205 203.808C102.056 205.802 100.893 205.294 98.5121 202.197C95.2962 198.013 95.3222 197.481 98.8636 195.121C101.077 193.646 102.142 191.257 101.385 189.46C99.6405 185.319 104.38 174.2 107.889 174.2C109.418 174.2 110.653 172.643 110.636 170.739C110.605 167.747 110.284 167.68 108.26 170.245C106.313 172.713 106.135 172.602 107.209 169.588C107.919 167.597 108.503 164.927 108.507 163.656C108.511 162.386 110.449 164.239 112.814 167.773C117.87 175.331 119.491 175.867 118.78 169.75C118.467 167.063 119.337 165.497 120.976 165.795C122.727 166.114 123.625 164.014 123.51 159.863L123.334 153.436L120.251 159.863C117.05 166.529 112.838 168.497 112.838 163.324C112.838 158.841 113.713 157.328 115.917 157.996C117.015 158.331 116.527 157.073 114.832 155.204C112.454 152.576 112.369 151.615 114.466 150.972C115.959 150.516 117.178 147.937 117.178 145.246C117.178 142.552 118.063 140.848 119.146 141.457C120.227 142.068 120.602 140.784 119.977 138.607C119.209 135.934 119.91 134.65 122.134 134.65C124.417 134.65 125.292 132.898 124.992 128.931C124.71 125.239 125.461 123.529 127.11 124.106C128.514 124.597 130.289 122.72 131.057 119.938C132.461 114.834 138.804 112.758 138.965 117.347C139.179 123.45 144.965 108.554 147.412 95.5951C149.975 82.0316 150.433 81.2564 155.892 81.211C162.724 81.1576 191.076 74.4875 197.224 71.4897C199.587 70.3368 204.027 69.3936 207.088 69.3936C210.15 69.3936 212.657 68.4859 212.657 67.3785C212.657 66.2158 210.361 65.8895 207.232 66.6033C203.89 67.3686 201.807 67.0028 201.807 65.6522C201.807 64.4479 203.028 63.3979 204.519 63.3227C206.012 63.2456 205.279 62.419 202.892 61.4837C199.018 59.9669 198.973 59.7692 202.477 59.6446C204.877 59.5596 205.869 58.5471 205.029 57.0343C204.274 55.6758 205.012 56.0634 206.668 57.9005C208.95 60.4257 213.216 61.2365 224.233 61.2365C232.236 61.2365 238.288 60.5028 237.681 59.607C236.136 57.329 245.148 55.4622 251.108 56.8267C254.211 57.5346 256.056 57.068 256.056 55.571C256.056 53.815 252.482 53.552 242.494 54.5783C226.432 56.2275 229.029 56.1306 216.997 55.5433L207.232 55.0687L220.251 53.293C227.412 52.3161 235.55 52.0155 238.336 52.6246C241.12 53.2336 242.897 52.9924 242.285 52.0887C241.671 51.185 244.653 50.8152 248.91 51.268C253.708 51.7802 256.141 51.3432 255.309 50.1191C253.361 47.2458 272.446 45.739 281.601 48.0428C285.845 49.1106 292.26 49.4468 295.855 48.7922C299.451 48.1357 301.779 48.1594 301.028 48.8456C300.275 49.5298 301.143 51.4401 302.953 53.0893C305.592 55.4939 306.755 55.5947 308.816 53.5955C310.808 51.6655 310.722 50.8804 308.432 50.1211C305.935 49.2925 305.935 48.8397 308.432 47.2162C310.696 45.743 310.5 45.5511 307.593 46.4034C303.17 47.7007 297.285 46.0277 297.285 43.4748C297.285 42.5039 299.653 41.7089 302.547 41.7089C305.913 41.7089 310.967 44.7344 316.581 50.1092ZM296.2 45.6639C296.958 46.7811 295.18 47.6413 292.116 47.6413C289.133 47.6413 286.088 46.7515 285.35 45.6639C284.593 44.5466 286.37 43.6864 289.434 43.6864C292.418 43.6864 295.463 44.5762 296.2 45.6639ZM311.288 52.7788C311.355 56.3284 312.672 58.3118 315.187 58.648C319.951 59.2847 319.916 57.7581 315.038 51.9779L311.184 47.4159L311.288 52.7788ZM272.331 51.5963C269.594 52.6681 269.195 53.2949 271.246 53.2949C273.036 53.2949 276.454 52.5316 278.841 51.5963C281.577 50.5245 281.976 49.8976 279.926 49.8976C278.135 49.8976 274.718 50.6609 272.331 51.5963ZM262.16 54.9244C263.725 55.4959 265.597 55.4247 266.318 54.7682C267.038 54.1116 265.758 53.6449 263.471 53.73C260.943 53.8249 260.428 54.2936 262.16 54.9244ZM190.957 60.7263C190.957 61.1416 189.004 61.4837 186.617 61.4837C184.23 61.4837 182.277 60.6768 182.277 59.6921C182.277 58.7053 184.23 58.3652 186.617 58.9327C189.004 59.5022 190.957 60.309 190.957 60.7263ZM408.259 61.4837C408.259 63.1151 409.097 66.2296 410.123 68.4048C411.3 70.8984 411.987 71.2623 411.987 69.3936C411.987 67.7621 411.15 64.6476 410.123 62.4724C408.947 59.9788 408.259 59.6149 408.259 61.4837ZM414.55 62.8501C414.502 65.233 415.44 67.7325 416.633 68.4048C417.827 69.0772 418.803 71.4066 418.803 73.5819C418.803 75.7571 417.827 76.9871 416.633 76.3147C415.44 75.6424 414.463 76.8724 414.463 79.0476C414.463 83.0915 418.118 86.4967 420.311 84.4975C422.876 82.1621 421.607 70.1292 418.198 64.4499C415.041 59.1898 414.628 59.0098 414.55 62.8501ZM179.519 62.6781C178.799 63.3346 176.926 63.4058 175.361 62.8343C173.63 62.2035 174.144 61.7348 176.672 61.6399C178.959 61.5548 180.239 62.0215 179.519 62.6781ZM190.369 64.6555C189.648 65.3121 187.776 65.3832 186.211 64.8117C184.48 64.1809 184.994 63.7123 187.522 63.6174C189.809 63.5323 191.089 63.999 190.369 64.6555ZM548.313 67.7879C547.621 69.3639 547.107 68.8952 547.003 66.5915C546.909 64.5072 547.422 63.3405 548.142 63.997C548.862 64.6536 548.941 66.3601 548.313 67.7879ZM318.985 66.8683C318.985 69.356 325.187 74.2878 326.645 72.959C327.22 72.4349 325.734 70.3902 323.338 68.4167C320.944 66.4412 318.985 65.7451 318.985 66.8683ZM194.212 69.3936C191.825 70.3289 188.407 71.0922 186.617 71.0922C184.566 71.0922 184.966 70.4654 187.702 69.3936C190.089 68.4582 193.507 67.6949 195.297 67.6949C197.348 67.6949 196.948 68.3218 194.212 69.3936ZM271.788 75.5079C269.104 76.4255 266.906 78.1696 266.906 79.3818C266.906 80.596 265.686 81.203 264.193 80.7304C262.703 80.2598 256.336 82.8562 250.047 86.4987C243.757 90.1432 237.863 93.1233 236.945 93.1233C236.029 93.1233 235.133 94.903 234.953 97.0782C234.773 99.2534 235.541 101.033 236.661 101.033C241.127 101.033 238.31 104.654 231.987 107.041C226.434 109.137 224.96 109.109 223.45 106.881C222.445 105.399 222.105 103.479 222.693 102.611C224.177 100.422 220.913 100.689 216.997 103.078C214.18 104.796 214.308 105.457 217.954 107.992C222.897 111.429 220.822 111.866 214.412 108.741C210.315 106.742 201.957 108.791 197.467 112.894C196.87 113.44 190.523 116.556 183.362 119.819C168.051 126.796 167.981 127.003 170.516 158.38C172.187 179.064 172.2 179.102 174.016 168.267C175.021 162.285 176.635 153.286 177.603 148.269C179.022 140.921 178.699 138.734 175.939 137.015C172.879 135.111 172.918 134.87 176.31 134.767C178.399 134.702 180.107 135.718 180.107 137.023C180.107 138.858 180.702 138.854 182.731 137.005C184.783 135.135 184.33 133.96 180.652 131.611C176.138 128.73 176.015 122.785 180.467 122.785C181.604 122.785 181.93 123.675 181.192 124.763C180.417 125.906 182.422 126.715 185.947 126.677C191.775 126.618 191.857 126.487 187.83 123.711C185.513 122.115 184.536 120.743 185.66 120.662C186.782 120.581 190.03 120.122 192.875 119.643C197.224 118.913 197.627 119.238 195.401 121.682C192.643 124.709 193.967 128.718 197.723 128.718C198.916 128.718 199.29 127.828 198.552 126.74C197.814 125.653 198.326 124.763 199.689 124.763C201.054 124.763 201.744 125.876 201.225 127.235C200.626 128.803 196.79 129.548 190.736 129.273C181.761 128.868 181.45 129.022 185.532 131.868C189.599 134.704 189.638 135.054 186.135 137.423C183.675 139.088 181.945 143.942 181.077 151.637C180.111 160.177 180.378 162.525 182.069 160.357C184.024 157.85 184.399 158.002 184.499 161.346C184.564 163.521 186.4 177.759 188.579 192.986C190.987 209.838 191.825 222.411 190.716 225.12C189.622 227.789 189.724 229.569 190.97 229.569C193.869 229.569 195.978 238.341 194.262 243.267C193.075 246.676 192.103 247.006 188.472 245.235C186.072 244.064 182.475 243.668 180.48 244.355C177.258 245.464 177.28 245.209 180.684 242.075C183.879 239.132 185.235 238.952 188.822 240.995C192.259 242.951 193.097 242.943 192.975 240.955C192.658 235.806 189.729 232.539 185.532 232.658C183.145 232.725 179.949 231.932 178.428 230.894C176.906 229.856 175.036 229.577 174.268 230.275C173.502 230.975 174.164 231.547 175.741 231.547C177.84 231.547 177.633 232.531 174.966 235.215C169.737 240.483 172.662 244.995 183.043 247.673C187.993 248.948 193.018 251.044 194.212 252.33C197.33 255.69 209.714 261.254 211.153 259.943C211.821 259.332 214.571 260.702 217.261 262.986C221.842 266.876 233.727 269.036 231.362 265.549C229.953 263.473 244.766 264.276 251.566 266.645C256.813 268.472 256.802 268.494 249.533 270.803C243.989 272.565 241.669 272.571 239.918 270.831C238.23 269.152 238.538 268.83 241.064 269.633C242.962 270.236 245.892 269.935 247.574 268.966C249.956 267.59 249.674 267.2 246.291 267.198C240.363 267.194 232.182 269.304 232.204 270.833C232.212 271.521 234.779 273.166 237.906 274.491C242.546 276.453 244.434 276.362 248.138 273.997C254.63 269.852 258.139 270.483 252.111 274.711L247.081 278.239L255.301 282.083C259.821 284.197 267.763 288.3 272.947 291.201C282.009 296.269 282.614 296.348 288.573 293.232C291.984 291.448 294.21 289.16 293.525 288.146C292.837 287.133 293.366 286.92 294.701 287.671C296.035 288.423 299.115 287.226 301.547 285.01C303.977 282.795 307.43 280.983 309.22 280.983C311.01 280.983 312.475 280.04 312.475 278.889C312.475 277.738 311.347 277.43 309.969 278.205C308.452 279.061 308.053 278.751 308.955 277.42C309.773 276.212 311.722 275.67 313.282 276.216C314.842 276.762 317.373 275.834 318.902 274.153C320.434 272.47 320.881 271.096 319.898 271.096C318.916 271.096 321.986 267.76 326.723 263.681C338.541 253.506 342.857 250.532 342.848 252.563C342.846 253.51 339.919 256.067 336.345 258.242C329.511 262.401 327.995 265.166 332.547 265.162C336.325 265.158 348.418 255.296 347.648 252.846C347.299 251.735 348.607 251.392 350.573 252.081C352.793 252.856 357.311 251.029 362.582 247.224C370.077 241.814 370.667 240.789 367.794 238.171C363.011 233.813 363.858 232.856 369.378 236.378C374.104 239.395 379.683 240.718 376.869 238.155C376.083 237.439 376.422 235.778 377.62 234.463C379.136 232.796 378.676 231.242 376.098 229.338C373.62 227.505 372.939 227.418 374.03 229.075C374.946 230.463 374.597 231.547 373.234 231.547C371.9 231.547 371.411 232.436 372.149 233.524C374.402 236.846 371.782 235.723 368.688 232.041C367.091 230.137 366.64 229.243 367.685 230.052C368.734 230.86 370.964 229.733 372.646 227.546C374.326 225.359 376.595 224.074 377.689 224.691C378.872 225.357 379.152 219.16 378.377 209.399C377.661 200.372 377.042 189.871 377.001 186.065C376.96 182.258 376.094 178.645 375.076 178.036C372.698 176.612 371.952 153.547 373.994 144.538C375.86 136.299 372.485 129.712 368.927 134.65C367.264 136.96 366.783 136.359 366.757 131.937C366.729 127.11 367.215 126.626 369.979 128.718C371.769 130.072 373.234 130.322 373.234 129.273C373.234 128.227 366.887 124.549 359.129 121.103C351.372 117.656 345.025 113.914 345.025 112.791C345.025 111.666 343.805 110.891 342.312 111.069C336.52 111.753 333.977 110.836 335.488 108.607C336.551 107.039 335.861 106.711 333.35 107.59C331.187 108.346 324.221 106.533 316.613 103.23C306.881 99.0063 304.526 97.2443 307.313 96.2714C309.365 95.5536 311.609 95.7118 312.301 96.6214C314.593 99.6331 329.835 107.324 329.835 105.467C329.835 104.466 327.639 102.619 324.952 101.363C317.75 97.9958 307.191 92.3402 300.193 88.1005C296.804 86.0479 292.214 84.63 289.996 84.9504C287.724 85.2806 286.55 84.6656 287.308 83.5483C289.684 80.0442 277.296 73.6273 271.788 75.5079ZM331.727 76.8091C328.973 80.0106 329.062 80.0462 332.923 77.3035C336.813 74.539 337.009 74.6497 335.806 78.8993C334.732 82.6941 335.041 83.0658 337.627 81.1081C339.986 79.3244 340.142 78.1024 338.276 76.0517C335.192 72.6663 335.305 72.6524 331.727 76.8091ZM281.733 79.2928C283.962 79.3007 282.964 80.4397 279.136 82.259C271.267 85.9984 268.893 85.9608 274.373 82.1839C276.69 80.588 277.365 79.2809 275.872 79.2809C274.314 79.2809 273.845 78.2704 274.77 76.906C276.024 75.059 276.573 75.059 277.248 76.906C277.727 78.2131 279.745 79.2869 281.733 79.2928ZM371.995 82.9571C371.995 85.1264 372.761 86.4691 373.698 85.9411C374.636 85.4111 375.404 86.3148 375.404 87.9462C375.404 89.5777 376.545 91.5551 377.943 92.3422C379.666 93.3131 380.022 92.6803 379.052 90.3785C378.114 88.1479 378.455 87.4538 380.05 88.3516C381.43 89.1288 382.098 88.6838 381.599 87.3174C381.115 85.9964 380.054 85.2055 379.241 85.5594C378.427 85.9134 376.463 84.5845 374.877 82.609C372.125 79.1781 371.995 79.1939 371.995 82.9571ZM147.558 85.4467C147.558 86.5343 146.581 86.8744 145.388 86.2021C144.194 85.5298 143.218 84.0902 143.218 83.0025C143.218 81.9149 144.194 81.5748 145.388 82.2472C146.581 82.9195 147.558 84.3591 147.558 85.4467ZM264.13 86.6114C261.145 89.3344 259.899 89.5025 257.699 87.4835C255.503 85.4685 255.713 85.2371 258.768 86.297C260.969 87.0603 262.566 86.6925 262.566 85.4249C262.566 84.2207 263.751 83.2359 265.2 83.2359C266.849 83.2359 266.45 84.4995 264.13 86.6114ZM291.396 88.579C294.72 89.1901 298.44 91.395 299.664 93.4792C301.625 96.8192 300.525 96.6432 290.365 91.9902C278.142 86.3939 273.808 83.6314 281.011 86.0261C283.397 86.8191 288.069 87.968 291.396 88.579ZM254.533 89.8268C255.299 91.6461 253.712 92.4648 249.418 92.4648C243.852 92.4648 243.587 92.1939 246.914 89.8901C251.681 86.5897 253.163 86.5778 254.533 89.8268ZM344.185 89.5302C344.812 90.4537 346.233 90.6989 347.344 90.072C350.183 88.4742 349.864 87.8493 346.205 87.8493C344.467 87.8493 343.558 88.6067 344.185 89.5302ZM138.19 93.495C137.498 95.0711 136.983 94.6024 136.879 92.2987C136.786 90.2144 137.298 89.0477 138.018 89.7042C138.739 90.3607 138.817 92.0673 138.19 93.495ZM144.969 98.1184C144.301 98.7274 143.088 97.6299 142.272 95.6801C141.096 92.8622 141.343 92.6348 143.487 94.5728C144.971 95.9155 145.637 97.5113 144.969 98.1184ZM227.497 97.1395C223.789 99.1111 223.422 105.316 226.95 106.333C228.04 106.645 230.396 106.026 232.186 104.956C234.916 103.325 234.96 102.728 232.451 101.255C230.806 100.288 230.131 98.5079 230.952 97.2997C232.744 94.6558 232.212 94.6301 227.497 97.1395ZM246.276 97.0565C247.035 98.1757 246.165 98.5079 244.234 97.8336C240.476 96.5186 239.788 95.1007 242.908 95.1007C244.032 95.1007 245.547 95.9807 246.276 97.0565ZM271.528 97.2166C274.533 98.6819 275.215 100.048 273.745 101.666C272.192 103.376 273.748 104.118 279.574 104.444L287.52 104.889L282.096 101.836C275.759 98.2687 276.499 98.4367 304.338 106.839C315.975 110.351 325.495 114.081 325.495 115.125C325.495 116.171 326.717 116.807 328.207 116.541C329.7 116.274 336.115 117.229 342.462 118.662C351.107 120.614 354.488 122.425 355.931 125.886C356.99 128.425 362.339 148.006 367.818 169.396C377.196 206.015 377.565 208.503 374.13 211.962C372.125 213.981 369.487 215.072 368.269 214.386C367.05 213.7 366.655 214.024 367.39 215.108C368.124 216.191 365.455 219.966 361.458 223.496C356.211 228.131 353.841 229.179 352.928 227.269C352.053 225.444 351.81 225.592 352.14 227.746C352.73 231.592 339.211 246.016 336.464 244.467C335.37 243.85 333.769 244.388 332.905 245.662C331.924 247.107 332.274 247.447 333.838 246.565C339.712 243.259 335.34 249.124 324.442 259.174C312.985 269.741 312.547 269.939 305.542 267.697C301.597 266.435 294.744 264.812 290.311 264.088C279.806 262.373 275.666 258.242 284.45 258.242C288.063 258.242 290.775 259.302 290.775 260.714C290.775 262.326 294.176 263.186 300.54 263.186C305.967 263.186 310.305 264.118 310.305 265.28C310.305 266.431 311.238 266.848 312.38 266.206C316.85 263.688 311.841 259.231 304.539 259.231C300.432 259.231 294.08 257.823 290.428 256.101C286.014 254.023 284.352 253.803 285.468 255.448C286.663 257.212 286.058 257.544 283.358 256.601C281.275 255.871 277.454 255.187 274.865 255.078C270.588 254.9 270.653 254.752 275.586 253.459C279.828 252.346 278.003 251.717 267.22 250.568C259.636 249.761 252.881 249.601 252.211 250.21C251.54 250.821 253.981 251.321 257.631 251.321C261.533 251.321 264.788 252.545 265.521 254.287C266.207 255.919 268.208 257.254 269.965 257.254C271.721 257.254 273.676 258.013 274.305 258.942C274.935 259.872 271.061 259.716 265.695 258.598C259.129 257.228 256.846 256.012 258.71 254.875C260.565 253.744 259.686 253.307 256.056 253.55C246.469 254.193 240.578 253.346 241.825 251.505C242.496 250.52 240.936 250.214 238.36 250.829C235.302 251.557 234.185 251.197 235.137 249.793C235.94 248.608 235.604 247.082 234.391 246.397C233.178 245.715 232.186 243.429 232.186 241.317C232.186 239.205 231.24 237.479 230.084 237.479C228.929 237.479 228.463 236.342 229.046 234.95C229.632 233.56 228.645 230.669 226.853 228.523C223.784 224.851 223.624 225.045 224.092 231.849C224.368 235.82 225.221 238.719 225.991 238.286C226.761 237.855 227.951 238.832 228.636 240.457C229.32 242.083 228.69 243.425 227.237 243.441C225.538 243.461 225.733 244.129 227.783 245.312C229.539 246.324 230.466 247.616 229.845 248.183C228.304 249.585 217.105 246.741 216.979 244.914C216.923 244.111 216.528 242.332 216.1 240.959C211.476 226.142 210.556 221.003 211.684 216.296C212.574 212.588 212.342 211.643 210.973 213.407C209.567 215.221 206.496 207.137 201.032 187.251C196.686 171.421 193.127 157.632 193.127 156.606C193.127 154.421 216.105 134.027 219.861 132.878C221.269 132.447 220.523 134.043 218.203 136.424C214.638 140.084 214.553 140.555 217.661 139.467C219.683 138.761 221.41 137.611 221.504 136.911C222.181 131.712 223.491 127.941 225.143 126.436C227.373 124.403 235.626 122.422 241.951 122.398C244.338 122.39 245.126 121.971 243.7 121.466C242.277 120.964 241.383 119.497 241.717 118.208C242.051 116.918 241.912 116.543 241.406 117.369C240.901 118.198 238.375 119.809 235.795 120.948C233.213 122.089 237.388 117.628 245.072 111.039C254.35 103.082 260.912 99.0082 264.601 98.9173C269.653 98.7907 269.766 98.6226 265.821 97.0782C263.434 96.1429 262.765 95.3163 264.337 95.2392C265.905 95.164 269.143 96.0519 271.528 97.2166ZM141.035 109.663C141.026 110.899 139.561 109.36 137.78 106.246C135.996 103.129 134.544 99.5698 134.551 98.3359C134.56 97.1 136.024 98.6384 137.806 101.753C139.59 104.869 141.041 108.429 141.035 109.663ZM382.372 99.8447C383.91 101.367 385.512 102.317 385.928 101.955C387.215 100.839 383.954 97.0782 381.701 97.0782C380.529 97.0782 380.831 98.324 382.372 99.8447ZM255.513 104.915C251.106 108.828 250.664 110.921 254.248 110.921C255.639 110.921 256.143 110.341 255.366 109.633C254.589 108.925 255.646 107.219 257.714 105.84C259.782 104.462 260.988 102.932 260.392 102.439C259.797 101.947 257.603 103.06 255.513 104.915ZM554.778 109.437C554.177 110.798 553.684 109.685 553.684 106.966C553.684 104.247 554.177 103.135 554.778 104.494C555.381 105.854 555.381 108.079 554.778 109.437ZM285.35 106.966C281.813 108.352 281.688 108.69 284.68 108.805C286.698 108.88 288.953 108.053 289.69 106.966C291.233 104.691 291.157 104.691 285.35 106.966ZM390.301 106.966C389.583 108.672 391.39 112.03 394.56 114.875C397.59 117.595 398.922 118.403 397.52 116.671C396.119 114.939 395.613 112.938 396.398 112.222C397.184 111.506 396.759 110.921 395.455 110.921C394.15 110.921 392.738 109.362 392.317 107.46C391.687 104.614 391.327 104.527 390.301 106.966ZM305.423 112.23C306.916 112.779 309.357 112.779 310.848 112.23C312.34 111.682 311.119 111.233 308.135 111.233C305.151 111.233 303.932 111.682 305.423 112.23ZM221.336 113.675C221.336 114.102 219.822 114.982 217.969 115.631C216.037 116.305 215.167 115.973 215.927 114.854C217.201 112.973 221.336 112.073 221.336 113.675ZM247.419 115.817C245.707 117.695 245.542 118.83 246.983 118.83C249.605 118.83 252.662 115.079 251.158 113.707C250.611 113.21 248.93 114.16 247.419 115.817ZM212.698 117.887C214.991 120.405 214.857 120.695 211.878 119.653C209.899 118.961 208.317 119.378 208.317 120.596C208.317 121.801 207.549 122.785 206.611 122.785C205.674 122.785 204.908 121.006 204.908 118.83C204.908 114.14 208.85 113.661 212.698 117.887ZM132.368 120.808C132.368 121.896 133.409 122.785 134.683 122.785C135.979 122.785 136.419 124.456 135.681 126.574C134.954 128.659 135.378 130.935 136.619 131.635C139.093 133.027 139.679 126.99 137.561 121.959C136.109 118.508 132.368 117.68 132.368 120.808ZM302.71 125.275C293.162 126.355 279.761 127.347 272.927 127.484C261.227 127.715 260.428 128.045 259.194 133.167C258.471 136.159 256.982 138.605 255.884 138.605C254.784 138.605 253.886 140.883 253.886 143.666C253.886 146.448 252.977 148.214 251.866 147.589C250.755 146.962 249.234 147.356 248.483 148.461C247.734 149.566 248.11 150.47 249.32 150.47C251.473 150.47 243.78 171.238 237.585 182.157C234.862 186.954 234.868 187.797 237.629 188.764C239.575 189.444 240.248 191.165 239.375 193.235C238.416 195.513 238.779 196.138 240.497 195.171C242.123 194.255 243.036 195.208 243.036 197.813C243.036 200.051 244.071 201.884 245.334 201.884C246.597 201.884 246.936 202.913 246.085 204.168C245.102 205.614 245.49 205.913 247.146 204.979C249.145 203.854 249.162 202.855 247.215 200.72C245.818 199.185 245.197 197.929 245.835 197.929C246.473 197.929 251.516 203.702 257.041 210.759C264.992 220.912 266.648 224.337 264.979 227.18C262.978 230.585 264.718 236.033 267.691 235.67C268.453 235.577 269.319 235.569 269.618 235.654C274.728 237.078 277.534 236.737 276.362 234.833C275.46 233.368 276.007 233.429 277.871 235.007C281.36 237.958 285.081 238.304 283.18 235.501C282.443 234.414 283.282 233.524 285.044 233.524C286.809 233.524 290.04 232.996 292.225 232.349C295.597 231.353 295.706 231.521 292.945 233.467C290.346 235.3 290.782 235.436 295.115 234.149C298.099 233.261 307.864 232.814 316.815 233.156C332.2 233.744 335.815 231.707 324.41 228.875C322.023 228.284 324.06 228.25 328.936 228.804L337.805 229.808L343.395 218.317C346.472 211.999 350.213 203.014 351.712 198.353C353.594 192.503 355.017 190.666 356.306 192.42C357.422 193.939 357.584 192.652 356.71 189.231C355.716 185.355 355.998 183.923 357.578 184.813C358.862 185.537 360.62 185.088 361.484 183.814C362.465 182.369 362.115 182.029 360.551 182.911C359.038 183.761 358.044 183.013 358.044 181.026C358.044 178.91 359.21 178.139 361.299 178.871C365.34 180.282 365.338 179.739 361.271 170.866C359.466 166.929 357.317 164.316 356.497 165.062C355.679 165.809 352.29 176.343 348.967 188.471C345.643 200.599 342.091 211.281 341.075 212.207C340.057 213.134 335.403 214.443 330.733 215.116C326.061 215.788 321.752 216.973 321.155 217.748C319.916 219.357 297.101 225.614 292.474 225.614C290.793 225.614 283.133 219.735 275.449 212.549C267.767 205.363 258.784 197.198 255.487 194.404C250.455 190.138 249.711 188.258 250.857 182.701C253.489 169.913 259.615 154.37 261.429 155.873C262.436 156.707 262.548 156.262 261.674 154.88C260.802 153.5 261.175 149.365 262.505 145.692C265.272 138.053 267.401 137.138 297.164 130.782L317.655 126.408L335.833 143.877C353.711 161.061 356.938 162.598 344.478 147.998C340.997 143.921 338.673 140.583 339.313 140.583C339.953 140.583 338.074 138.218 335.134 135.329C332.196 132.439 330.243 129.663 330.794 129.161C332.411 127.69 326.074 122.76 322.936 123.048C321.361 123.193 312.258 124.195 302.71 125.275ZM353.737 137.122C353.761 141.492 354.371 142.687 355.642 140.858C357.348 138.404 356.51 130.695 354.535 130.695C354.08 130.695 353.72 133.588 353.737 137.122ZM407.954 134.65C407.954 135.738 408.989 136.628 410.252 136.628C411.514 136.628 411.946 135.738 411.208 134.65C410.471 133.563 409.438 132.673 408.91 132.673C408.383 132.673 407.954 133.563 407.954 134.65ZM74.5275 137.701C73.8201 139.38 72.7763 140.33 72.2078 139.811C71.6392 139.293 71.8172 137.919 72.6049 136.76C74.7445 133.604 75.9944 134.217 74.5275 137.701ZM293.193 140.668C289.328 143.883 285.422 146.515 284.511 146.515C279.485 146.515 272.919 156.721 272.554 165.097C272.315 170.551 272.893 173.126 274.023 171.663C275.084 170.292 275.273 174.245 274.464 180.848C273.461 189.017 273.743 192.046 275.414 191.105C276.718 190.37 278.348 191.103 279.036 192.735C279.722 194.368 281.453 195.293 282.879 194.795C284.307 194.295 287.399 195.307 289.753 197.044C292.106 198.78 292.659 199.551 290.982 198.76C288.892 197.771 288.458 198.09 289.599 199.774C290.721 201.426 291.982 201.576 293.455 200.233C294.66 199.136 297.073 198.738 298.817 199.347C301.426 200.261 301.475 200.793 299.095 202.345C296.986 203.721 297.307 203.907 300.273 203.025C302.513 202.361 305.442 202.642 306.783 203.652C310.463 206.425 320.992 203.88 323.498 199.61C324.716 197.538 326.664 196.377 327.828 197.032C328.991 197.688 329.674 197.046 329.347 195.604C329.019 194.164 330.024 193.225 331.582 193.516C335.405 194.234 343.718 188.762 341.071 187.271C339.914 186.62 338.41 187.417 337.725 189.043C337.041 190.668 335.29 191.997 333.836 191.997C332.382 191.997 333.832 189.488 337.056 186.421L342.92 180.842L339.417 165.163C337.49 156.537 335.034 148.635 333.96 147.603C331.026 144.785 331.545 150.44 335.236 161.526C340.079 176.072 339.443 178.459 327.995 188.734L317.475 198.177L301.747 194.718C288.742 191.857 285.665 190.407 283.968 186.343C282.842 183.64 282.417 180.247 283.024 178.803C283.632 177.358 283.289 176.177 282.263 176.177C281.236 176.177 279.806 174.036 279.086 171.417C278.363 168.799 277.276 165.461 276.668 164.002C276.059 162.541 280.761 156.139 287.117 149.776L298.674 138.206L308.905 141.372C320.704 145.022 329.798 145.576 321.155 142.115C318.171 140.923 314.962 139.867 314.024 139.77C313.085 139.673 311.62 138.704 310.769 137.616C307.656 133.642 300.048 134.963 293.193 140.668ZM557.659 145.963C555.316 149.293 555.251 149.288 556.431 145.859C557.119 143.867 557.813 140.308 557.976 137.949C558.271 133.665 558.274 133.665 559.204 138.053C559.717 140.47 559.022 144.029 557.659 145.963ZM126.149 137.965C126.368 138.86 125.782 141.19 124.849 143.14C123.916 145.089 123.762 147.241 124.504 147.919C125.248 148.597 125.858 147.617 125.858 145.74C125.858 143.863 126.834 142.877 128.028 143.549C129.221 144.221 130.198 143.436 130.198 141.805C130.198 140.173 129.198 138.275 127.974 137.587C126.752 136.897 125.93 137.067 126.149 137.965ZM371.476 145.526C370.988 149.333 370.207 152.448 369.743 152.448C369.276 152.448 368.894 149.333 368.894 145.526C368.894 141.72 369.675 138.605 370.628 138.605C371.583 138.605 371.965 141.72 371.476 145.526ZM294.163 148.297C293.499 149.276 296.37 149.99 300.545 149.883C304.72 149.774 308.135 148.973 308.135 148.101C308.135 145.916 295.658 146.092 294.163 148.297ZM319.833 152.222C325.195 157.322 325.679 158.876 324.375 166.796C323.028 174.993 322.281 175.837 314.48 177.967C307.352 179.913 305.182 179.756 300.49 176.954C292.906 172.426 290.595 167.813 292.01 160.025L293.208 153.436L289.899 158.38C285.194 165.408 285.598 167.724 293.026 176.268C299.362 183.561 300.043 183.822 310.889 183.14C321.606 182.464 322.344 182.054 325.838 174.854C327.86 170.688 329.585 165.673 329.674 163.713C329.85 159.829 319.159 146.515 315.867 146.515C314.749 146.515 316.533 149.084 319.833 152.222ZM444.109 152.942C443.508 154.302 443.016 153.189 443.016 150.47C443.016 147.751 443.508 146.64 444.109 147.998C444.713 149.359 444.713 151.583 444.109 152.942ZM202.538 150.964C199.372 155.584 200.043 157.913 204.252 156.909C207.238 156.199 207.789 155.24 206.212 153.507C205.003 152.181 204.656 150.51 205.441 149.794C206.227 149.078 206.277 148.493 205.552 148.493C204.825 148.493 203.471 149.606 202.538 150.964ZM172.864 156.897C172.263 158.257 171.77 157.144 171.77 154.425C171.77 151.706 172.263 150.595 172.864 151.953C173.467 153.314 173.467 155.538 172.864 156.897ZM399.274 152.331C399.274 153.355 400.239 154.735 401.42 155.4C402.648 156.092 403.013 155.299 402.273 153.539C400.83 150.114 399.274 149.487 399.274 152.331ZM297.828 153.871C296.337 154.358 295.115 155.491 295.115 156.393C295.115 158.449 300.286 157.868 301.263 155.7C302.263 153.482 301.035 152.827 297.828 153.871ZM306.688 155.319C306.688 156.907 307.501 157.747 308.498 157.188C309.491 156.628 310.305 158.002 310.305 160.241C310.305 162.479 309.27 164.312 308.007 164.312C306.744 164.312 306.406 163.284 307.256 162.028C308.322 160.46 307.853 160.296 305.759 161.504C301.625 163.889 298.685 163.86 296.775 161.411C295.81 160.174 295.183 160.535 295.183 162.335C295.183 170.326 307.041 175.667 314.382 170.98C319.195 167.907 320.975 155.78 316.943 153.509C315.743 152.833 315.383 155.062 316.071 158.922C317.505 166.972 312.937 171.275 304.908 169.44C297.871 167.83 297.767 164.295 304.789 165.455C312.252 166.689 316.099 160.193 310.596 155.655C307.339 152.968 306.688 152.912 306.688 155.319ZM242.578 159.42C241.908 161.568 240.697 165.103 239.89 167.279C239.08 169.454 240.009 168.734 241.951 165.677C243.893 162.622 245.102 159.084 244.64 157.818C244.175 156.551 243.249 157.273 242.578 159.42ZM56.3518 166.29C56.3518 168.926 56.1196 168.926 54.2491 166.29C53.0925 164.658 52.1464 161.989 52.1464 160.357C52.1464 157.721 52.3786 157.721 54.2491 160.357C55.4057 161.989 56.3518 164.658 56.3518 166.29ZM374.319 160.357C375.057 161.445 376.09 162.335 376.617 162.335C377.144 162.335 377.574 161.445 377.574 160.357C377.574 159.27 376.539 158.38 375.276 158.38C374.013 158.38 373.581 159.27 374.319 160.357ZM553.767 163.818C553.137 166.81 552.204 168.115 551.692 166.719C550.77 164.204 552.421 158.38 554.057 158.38C554.526 158.38 554.396 160.826 553.767 163.818ZM65.0642 168.327C61.5684 174.279 60.2317 172.058 63.4932 165.716C64.9731 162.839 66.4921 161.299 66.8675 162.289C67.2429 163.282 66.4313 165.999 65.0642 168.327ZM34.0316 166.662C33.3393 168.238 32.8251 167.769 32.7209 165.465C32.6276 163.381 33.1397 162.214 33.8601 162.871C34.5806 163.527 34.6587 165.234 34.0316 166.662ZM203.393 166.448C204.161 169.122 205.144 170.019 205.687 168.538C206.207 167.111 205.604 165.004 204.341 163.854C202.731 162.386 202.449 163.16 203.393 166.448ZM399.341 163.324C399.341 164.411 400.287 166.636 401.444 168.267C402.6 169.899 403.546 170.344 403.546 169.256C403.546 168.168 402.6 165.944 401.444 164.312C400.287 162.681 399.341 162.236 399.341 163.324ZM375.827 171.234C375.871 174.496 376.357 175.592 376.908 173.668C377.459 171.744 377.422 169.074 376.828 167.735C376.233 166.397 375.784 167.971 375.827 171.234ZM539.588 172.717C538.987 174.077 538.494 172.964 538.494 170.245C538.494 167.526 538.987 166.414 539.588 167.773C540.191 169.133 540.191 171.358 539.588 172.717ZM175.939 171.398C176.043 173.701 176.557 174.17 177.249 172.594C177.876 171.166 177.798 169.46 177.078 168.803C176.357 168.147 175.845 169.313 175.939 171.398ZM28.8388 176.177C28.2139 178.352 27.3285 180.132 26.8707 180.132C26.415 180.132 26.0396 178.352 26.0396 176.177C26.0396 174.002 26.9249 172.222 28.0056 172.222C29.0884 172.222 29.4616 174.002 28.8388 176.177ZM236.698 173.543C236.604 174.815 235.964 177.484 235.276 179.476C234.089 182.918 234.152 182.924 236.515 179.563C237.885 177.619 238.523 174.949 237.937 173.63C237.166 171.9 236.821 171.876 236.698 173.543ZM550.318 177.328C549.594 179.049 549.001 181.451 549.001 182.667C549.001 184.279 548.337 184.273 546.543 182.638C543.702 180.049 545.518 174.2 549.166 174.2C550.527 174.2 551.043 175.604 550.318 177.328ZM204.148 181.285C204.252 183.589 204.767 184.057 205.459 182.481C206.086 181.054 206.008 179.347 205.287 178.691C204.567 178.034 204.055 179.201 204.148 181.285ZM423.143 181.238C423.143 182.932 422.152 183.761 420.939 183.079C419.726 182.394 419.294 181.008 419.982 179.996C421.841 177.253 423.143 177.763 423.143 181.238ZM57.1677 183.183C56.4603 184.862 55.4166 185.811 54.848 185.293C54.2795 184.775 54.4575 183.401 55.2452 182.242C57.3847 179.086 58.6346 179.699 57.1677 183.183ZM458.062 188.212L455.968 192.986L455.829 187.878C455.756 185.068 456.405 182.12 457.275 181.327C459.853 178.979 460.319 183.067 458.062 188.212ZM277.068 186.436C276.375 188.012 275.861 187.544 275.757 185.24C275.664 183.156 276.176 181.989 276.896 182.646C277.617 183.302 277.695 185.009 277.068 186.436ZM31.8616 188.414C31.1694 189.99 30.6551 189.521 30.5509 187.217C30.4576 185.133 30.9697 183.967 31.6902 184.623C32.4106 185.28 32.4887 186.986 31.8616 188.414ZM546.399 190.447C546.758 192.132 545.781 196.347 544.23 199.814L541.406 206.118V196.09C541.406 190.287 542.32 186.341 543.576 186.723C544.77 187.085 546.039 188.76 546.399 190.447ZM178.441 195.952C178.441 199.759 178.888 201.317 179.432 199.413C179.979 197.508 179.979 194.396 179.432 192.491C178.888 190.587 178.441 192.145 178.441 195.952ZM461.515 194.346C460.823 195.922 460.308 195.454 460.204 193.15C460.111 191.066 460.623 189.899 461.343 190.555C462.064 191.212 462.142 192.919 461.515 194.346ZM535.248 196.446C534.647 197.807 534.154 196.694 534.154 193.975C534.154 191.255 534.647 190.144 535.248 191.503C535.851 192.863 535.851 195.088 535.248 196.446ZM415.945 200.279C415.253 201.855 414.739 201.386 414.635 199.082C414.542 196.998 415.054 195.831 415.774 196.488C416.495 197.144 416.573 198.851 415.945 200.279ZM533.124 204.234C532.431 205.81 531.917 205.341 531.813 203.037C531.72 200.953 532.232 199.786 532.952 200.443C533.673 201.099 533.751 202.806 533.124 204.234ZM56.4191 204.851C57.9771 206.561 58.1876 207.817 56.916 207.817C55.7052 207.817 54.1515 206.482 53.4636 204.851C52.7779 203.219 52.5544 201.884 52.9667 201.884C53.379 201.884 54.9327 203.219 56.4191 204.851ZM98.9678 205.345C100.554 207.249 101.882 209.919 101.919 211.277C102.023 215.019 98.1063 214.236 96.9736 210.289C96.2966 207.924 95.8908 208.392 95.6977 211.772C95.5392 214.491 94.5866 217.902 93.5776 219.353C90.34 224.006 89.0033 216.828 91.6463 208.984C94.374 200.882 94.9924 200.573 98.9678 205.345ZM274.501 207.817C276.66 209.992 278.917 211.772 279.513 211.772C280.11 211.772 278.83 209.992 276.671 207.817C274.511 205.642 272.255 203.862 271.658 203.862C271.061 203.862 272.342 205.642 274.501 207.817ZM106.328 206.348C106.328 206.626 107.285 209.893 108.455 213.609C109.885 218.153 109.844 221.171 108.329 222.834C105.595 225.836 110.16 233.524 114.678 233.524C116.321 233.524 117.126 234.752 116.482 236.281C115.844 237.795 117.827 241.131 120.887 243.696C124.74 246.921 126.752 247.592 127.427 245.871C128.909 242.085 132.351 245.027 130.983 248.913C130.053 251.561 130.259 251.709 131.921 249.585C133.093 248.086 135.198 247.505 136.595 248.292C138.424 249.322 138.147 250.384 135.61 252.075C132.377 254.228 132.411 254.699 136.029 257.683C139.765 260.764 139.984 260.602 140.113 254.647C140.249 248.347 134.824 242.122 124.773 237.046C120.882 235.08 120.741 235.193 123.41 238.143C125.975 240.975 125.899 241.434 122.868 241.434C120.893 241.434 119.348 239.832 119.348 237.785C119.348 235.778 117.395 232.525 115.008 230.558C112.621 228.59 110.683 225.559 110.701 223.825C110.729 221.111 111.018 221.078 112.754 223.579C113.865 225.179 115.557 225.725 116.518 224.791C117.478 223.858 117.044 222.697 115.551 222.213C114.008 221.711 112.838 217.991 112.838 213.585C112.838 208.019 111.922 205.839 109.583 205.839C107.793 205.839 106.328 206.067 106.328 206.348ZM466.51 212.383C466.527 213.263 465.566 213.433 464.373 212.761C463.179 212.088 462.218 210.034 462.235 208.195C462.266 205.313 462.561 205.26 464.373 207.817C465.529 209.448 466.491 211.503 466.51 212.383ZM540.506 213.957C539.362 216.561 538.364 217.653 538.288 216.383C538.106 213.296 540.634 207.441 541.721 208.434C542.196 208.867 541.649 211.351 540.506 213.957ZM64.1051 219.173C62.7554 225.948 62.1912 226.087 59.2249 220.356C57.0701 216.197 57.1634 215.565 59.7891 216.482C63.6473 217.831 63.8599 215.491 60.2165 211.768C57.9099 209.411 58.0704 209.387 61.2972 211.612C63.7514 213.304 64.7409 215.972 64.1051 219.173ZM255.103 217.374C257.1 220.457 260.214 222.978 262.021 222.978C264.864 222.978 264.886 222.687 262.175 220.835C260.452 219.656 258.402 217.137 257.616 215.232C256.833 213.328 255.129 211.772 253.832 211.772C252.43 211.772 252.946 214.048 255.103 217.374ZM359.129 217.704C358.392 218.792 358.823 219.682 360.086 219.682C361.349 219.682 362.384 218.792 362.384 217.704C362.384 216.617 361.955 215.727 361.427 215.727C360.9 215.727 359.867 216.617 359.129 217.704ZM462.988 218.693C463.674 220.324 463.394 221.659 462.368 221.659C461.339 221.659 459.935 220.324 459.247 218.693C458.561 217.062 458.841 215.727 459.868 215.727C460.896 215.727 462.3 217.062 462.988 218.693ZM468.025 220.053C467.332 221.63 466.818 221.161 466.714 218.857C466.621 216.773 467.133 215.606 467.853 216.263C468.574 216.919 468.652 218.626 468.025 220.053ZM75.9488 227.238C78.7763 229.508 78.7828 229.769 76.0009 229.215C71.6349 228.349 67.2689 224.453 67.2689 221.422C67.2689 219.601 68.0024 219.696 69.9814 221.776C71.4743 223.342 74.1586 225.802 75.9488 227.238ZM175.973 224.4C174.461 226.059 175.175 227.538 178.362 229.352C182.414 231.657 182.744 231.554 181.413 228.392C180.016 225.074 180.177 225.058 183.898 228.127C187.624 231.2 187.895 231.163 188.197 227.522C188.373 225.385 187.845 223.569 187.025 223.484C186.205 223.401 183.866 223.041 181.83 222.683C179.792 222.328 177.158 223.099 175.973 224.4ZM538.119 224.131C538.071 227.708 534.282 232.636 532.694 231.187C531.95 230.508 532.62 228.088 534.183 225.806C537.47 221.011 538.164 220.716 538.119 224.131ZM271.246 226.362C271.246 226.771 269.538 228.329 267.448 229.822C264.007 232.28 263.931 232.211 266.628 229.075C269.464 225.78 271.246 224.734 271.246 226.362ZM274.201 232.535C273.513 234.167 272.567 235.501 272.098 235.501C271.63 235.501 271.246 234.167 271.246 232.535C271.246 230.904 272.192 229.569 273.348 229.569C274.503 229.569 274.887 230.904 274.201 232.535ZM522.944 238.901C520.594 242.239 520.529 242.233 521.712 238.8C522.4 236.809 523.075 233.694 523.213 231.879C523.441 228.907 523.563 228.917 524.444 231.98C524.982 233.848 524.307 236.963 522.944 238.901ZM76.8775 238.126C75.1177 242.306 71.7564 240.578 72.7221 235.988C73.1192 234.09 73.5206 232.134 73.6117 231.645C73.705 231.155 74.7879 231.675 76.0204 232.798C77.2529 233.921 77.6392 236.318 76.8775 238.126ZM450.934 236.542C450.266 237.151 449.053 236.053 448.237 234.103C447.061 231.286 447.308 231.058 449.452 232.996C450.936 234.339 451.602 235.935 450.934 236.542ZM94.732 250.161C94.4152 251.153 92.5707 252.178 90.6286 252.437C88.6865 252.696 87.5342 251.875 88.0659 250.613C88.5975 249.35 87.0699 244.766 84.6742 240.425L80.3148 232.535L87.8098 240.445C91.9306 244.796 95.0467 249.168 94.732 250.161ZM189.714 237.675C191.437 239.352 190.773 239.346 187.16 237.651C184.475 236.393 182.277 236.18 182.277 237.178C182.277 238.177 180.324 239.46 177.937 240.03C173.129 241.175 172.3 239.452 176.028 236.055C178.838 233.494 186.324 234.378 189.714 237.675ZM340.685 236.49C339.198 238.122 338.66 239.456 339.489 239.456C340.318 239.456 342.46 238.122 344.25 236.49C346.04 234.859 346.578 233.524 345.445 233.524C344.313 233.524 342.171 234.859 340.685 236.49ZM363.567 244.97C362.972 245.511 361.848 244.438 361.067 242.583C359.819 239.621 358.828 239.886 352.878 244.768C346.787 249.767 346.865 249.577 353.637 242.866C360.88 235.689 361.232 235.571 362.907 239.696C363.864 242.055 364.161 244.428 363.567 244.97ZM457.863 238.226C457.863 238.636 456.155 240.194 454.065 241.687C450.624 244.145 450.548 244.076 453.245 240.94C456.081 237.645 457.863 236.599 457.863 238.226ZM461.014 243.595C459.104 246.959 457.049 249.261 456.444 248.711C455.356 247.72 461.875 237.479 463.594 237.479C464.084 237.479 462.923 240.232 461.014 243.595ZM90.1924 247.946C91.0084 249.896 92.2214 250.993 92.8897 250.384C93.5581 249.777 92.8919 248.181 91.4076 246.838C89.2637 244.9 89.0163 245.128 90.1924 247.946ZM356.623 248.44C355.916 250.119 354.872 251.068 354.303 250.55C353.735 250.032 353.913 248.658 354.7 247.499C356.84 244.343 358.09 244.956 356.623 248.44ZM204.762 253.467C209.067 252.943 213.401 253.736 211.016 254.612C209.517 255.164 208.829 256.411 209.491 257.384C210.15 258.357 207.792 257.637 204.25 255.784C200.707 253.932 198.341 251.63 198.995 250.669C199.646 249.708 200.9 249.983 201.779 251.28C202.657 252.575 204.001 253.56 204.762 253.467ZM443.808 261.163C437.958 266.576 432.622 270.459 431.953 269.791C431.285 269.123 431.964 268.177 433.464 267.691C434.963 267.202 435.545 265.852 434.757 264.689C433.967 263.526 434.295 263.123 435.484 263.793C436.673 264.462 440.922 261.93 444.925 258.165C448.929 254.4 452.709 251.321 453.325 251.321C453.942 251.321 449.658 255.751 443.808 261.163ZM294.612 255.608C295.875 256.759 298.186 257.309 299.753 256.834C301.378 256.34 300.393 255.444 297.459 254.744C293.85 253.884 293.002 254.141 294.612 255.608ZM323.047 256.759C320.35 259.896 320.426 259.965 323.867 257.507C327.483 254.922 328.63 253.299 326.845 253.299C326.395 253.299 324.685 254.855 323.047 256.759ZM438.98 255.935C439.589 257.386 438.717 258.573 437.042 258.573C433.791 258.573 433.064 256.781 435.44 254.618C437.422 252.81 437.708 252.917 438.98 255.935ZM223.914 257.906C225.501 259.354 228.257 260.176 230.036 259.733C232.651 259.085 232.709 259.289 230.338 260.805C227.692 262.496 214.827 258.608 214.827 256.121C214.827 254.206 221.235 255.466 223.914 257.906ZM307.05 256.708C309.437 257.242 312.523 258.517 313.909 259.54C315.47 260.693 316.906 260.696 317.683 259.552C318.972 257.651 311.75 255.173 305.965 255.533C304.145 255.646 304.624 256.164 307.05 256.708ZM111.669 269.613C116.529 275.988 117.36 277.705 113.819 274.062C102.288 262.197 99.8835 259.231 101.8 259.231C102.874 259.231 107.313 263.904 111.669 269.613ZM0.0325495 322.016L0 383.812L138.335 383.563C265.584 383.332 275.106 383.088 257.141 380.533C246.4 379.003 229.652 377.559 219.922 377.322C210.135 377.083 202.768 376.096 203.432 375.113C204.126 374.085 199.923 373.905 193.455 374.688C187.207 375.441 182.277 375.256 182.277 374.265C182.277 372.744 171.738 371.311 142.133 368.807C138.552 368.504 129.764 367.626 122.603 366.853C115.442 366.082 104.549 365.354 98.3971 365.238C92.2431 365.121 88.1505 364.496 89.3028 363.848C90.455 363.201 79.7593 361.562 65.5395 360.205L39.68 357.741L29.3141 329.744C23.6136 314.345 17.2143 298.187 15.0921 293.837C12.9721 289.487 9.66937 281.478 7.75546 276.04C0.59023 255.684 0.0672689 258.804 0.0325495 322.016ZM324.251 268.088C321.951 269.672 321.046 270.985 322.24 271.003C325.464 271.051 330.976 267.521 329.613 266.281C328.965 265.688 326.552 266.502 324.251 268.088ZM420.973 269.866C420.973 270.275 419.266 271.834 417.176 273.327C413.734 275.785 413.658 275.715 416.356 272.579C419.192 269.285 420.973 268.239 420.973 269.866ZM429.653 271.741C429.653 272.095 427.314 274.387 424.456 276.833C420.637 280.103 418.825 280.637 417.612 278.85C416.631 277.402 416.861 276.924 418.178 277.665C419.396 278.351 422.141 277.153 424.274 275.004C427.937 271.316 429.653 270.275 429.653 271.741ZM274.629 276.148C278.773 279.174 278.771 279.196 274.501 277.404C272.114 276.404 268.696 275.091 266.906 274.485C264.093 273.536 264.111 273.364 267.034 273.23C268.893 273.145 272.311 274.458 274.629 276.148ZM366.724 280.983C366.724 282.071 365.016 282.947 362.927 282.931C359.68 282.906 359.602 282.621 362.384 280.983C366.479 278.571 366.724 278.571 366.724 280.983ZM125.17 287.288C124.478 288.864 123.964 288.395 123.859 286.091C123.766 284.007 124.278 282.84 124.999 283.497C125.719 284.153 125.797 285.86 125.17 287.288ZM418.803 283.833C418.803 284.313 417.827 285.255 416.633 285.927C415.44 286.599 414.463 286.206 414.463 285.055C414.463 283.904 415.44 282.961 416.633 282.961C417.827 282.961 418.803 283.352 418.803 283.833ZM345.567 288.225C344.076 288.775 341.635 288.775 340.142 288.225C338.651 287.677 339.871 287.228 342.855 287.228C345.838 287.228 347.06 287.677 345.567 288.225ZM130.198 294.027C130.198 292.162 131.222 291.215 132.474 291.919C134.05 292.807 134.056 293.962 132.492 295.678C131.25 297.041 130.877 298.741 131.663 299.457C132.448 300.173 132.611 300.758 132.023 300.758C131.435 300.758 128.588 298.318 125.693 295.334C120.956 290.45 120.919 290.283 125.316 293.663C129.77 297.088 130.198 297.12 130.198 294.027ZM182.277 297.179C182.277 299.779 177.345 298.152 176.264 295.196C175.735 293.75 176.729 293.309 178.84 294.047C180.73 294.709 182.277 296.117 182.277 297.179ZM399.994 300.98C396.583 304.088 395.042 304.498 393.777 302.629C392.751 301.116 392.976 300.643 394.352 301.419C397.47 303.177 402.181 297.563 400.226 294.418C398.944 292.354 399.206 292.342 401.582 294.353C404.048 296.437 403.785 297.525 399.994 300.98ZM335.151 296.663C334.018 297.673 330.16 299.016 326.58 299.647C320.487 300.721 320.558 300.612 327.665 297.96C337.002 294.476 337.751 294.347 335.151 296.663ZM143.485 305.207C147.412 309.831 148.636 312.054 146.204 310.147C143.771 308.241 140.972 307.351 139.982 308.17C138.991 308.988 138.923 308.488 139.828 307.06C140.787 305.548 139.887 302.866 137.669 300.634C135.577 298.528 134.423 296.803 135.104 296.803C135.786 296.803 139.557 300.584 143.485 305.207ZM314.712 303.1C309.248 304.943 306.937 304.122 309.005 301.075C309.721 300.017 312.434 299.659 315.029 300.278L319.751 301.401L314.712 303.1ZM119.138 307.543C118.567 308.063 116.807 306.526 115.225 304.13C112.48 299.963 112.528 299.922 116.265 303.183C118.415 305.061 119.708 307.023 119.138 307.543ZM303.795 304.713C307.762 307.049 304.335 307.049 298.37 304.713C295.508 303.592 295.139 302.977 297.285 302.906C299.075 302.844 302.005 303.659 303.795 304.713ZM214.827 311.282C214.827 311.787 213.483 312.668 211.843 313.244C209.829 313.948 208.859 312.765 208.859 309.605C208.859 305.635 209.311 305.336 211.843 307.644C213.483 309.139 214.827 310.776 214.827 311.282ZM283.677 311.84C282.957 312.496 281.084 312.568 279.52 311.996C277.788 311.365 278.302 310.897 280.83 310.802C283.118 310.717 284.398 311.183 283.677 311.84ZM203.356 315.095C202.816 316.455 203.955 319.346 205.886 321.522C209.352 325.419 209.334 325.425 204.665 321.83C202.061 319.825 200.457 316.932 201.099 315.403C202.547 311.967 204.717 311.67 203.356 315.095ZM211.628 320.151C210.962 320.76 209.211 320.153 207.737 318.801C205.611 316.847 205.86 316.621 208.952 317.693C211.092 318.437 212.296 319.542 211.628 320.151ZM226.636 318.372C227.306 319.356 225.898 319.698 223.509 319.129C218.442 317.921 217.802 316.578 222.293 316.578C224.014 316.578 225.967 317.385 226.636 318.372ZM218.082 322.51C217.344 323.598 215.764 324.488 214.571 324.488C213.377 324.488 213.004 323.598 213.742 322.51C214.479 321.423 216.059 320.533 217.253 320.533C218.446 320.533 218.819 321.423 218.082 322.51ZM277.168 329.637C276.447 330.294 274.574 330.365 273.01 329.793C271.278 329.163 271.793 328.694 274.321 328.599C276.608 328.514 277.888 328.981 277.168 329.637ZM363.832 333.299C363.832 334.883 363.001 335.712 361.987 335.141C360.974 334.569 360.705 333.274 361.393 332.261C363.146 329.675 363.832 329.965 363.832 333.299ZM127.44 377.097C126.719 377.753 124.847 377.824 123.282 377.253C121.551 376.622 122.065 376.153 124.593 376.058C126.88 375.973 128.16 376.44 127.44 377.097Z" fill="black"/>
</svg>
