<svg width="28" height="28" viewBox="0 0 28 28" fill="none" xmlns="http://www.w3.org/2000/svg">
<g clip-path="url(#clip0_68_215)">
<path fill-rule="evenodd" clip-rule="evenodd" d="M14.0004 0.583252C10.6768 0.584976 7.46225 1.76212 4.93145 3.9042C2.40064 6.04627 0.718656 9.0136 0.186237 12.2756C-0.346182 15.5376 0.305683 18.8815 2.02528 21.7095C3.74489 24.5374 6.42008 26.665 9.57252 27.7117C10.268 27.8408 10.53 27.4098 10.53 27.0432C10.53 26.6767 10.5161 25.6141 10.5114 24.4523C6.61673 25.2937 5.79375 22.8088 5.79375 22.8088C5.15855 21.1953 4.24051 20.7711 4.24051 20.7711C2.9701 19.909 4.33557 19.9252 4.33557 19.9252C5.74275 20.0243 6.48228 21.3612 6.48228 21.3612C7.72951 23.4888 9.75798 22.8734 10.5555 22.5138C10.6806 21.6125 11.0446 20.9993 11.4457 20.6513C8.33457 20.3009 5.06581 19.1069 5.06581 13.7729C5.04653 12.3896 5.56279 11.0518 6.50778 10.0364C6.36405 9.68601 5.88416 8.27069 6.64455 6.34825C6.64455 6.34825 7.81992 5.97483 10.4952 7.7751C12.7899 7.15115 15.2109 7.15115 17.5056 7.7751C20.1786 5.97483 21.3516 6.34825 21.3516 6.34825C22.1143 8.26608 21.6345 9.6814 21.4907 10.0364C22.4387 11.052 22.956 12.3921 22.935 13.7775C22.935 19.123 19.6593 20.3009 16.5435 20.6444C17.0443 21.0777 17.4917 21.9237 17.4917 23.2237C17.4917 25.0862 17.4755 26.5845 17.4755 27.0432C17.4755 27.4144 17.7282 27.8477 18.4376 27.7117C21.5904 26.6648 24.2658 24.5369 25.9854 21.7085C27.705 18.88 28.3565 15.5356 27.8235 12.2733C27.2904 9.01102 25.6076 6.04367 23.076 3.90196C20.5443 1.76025 17.329 0.583883 14.005 0.583252H14.0004Z" fill="black"/>
<path d="M5.30182 20.5707C5.27168 20.6399 5.16041 20.6606 5.07 20.6122C4.97958 20.5638 4.91236 20.4739 4.94481 20.4025C4.97727 20.331 5.08623 20.3126 5.17664 20.361C5.26705 20.4094 5.3366 20.5016 5.30182 20.5707Z" fill="black"/>
<path d="M5.8696 21.2C5.82159 21.224 5.76667 21.2308 5.71423 21.219C5.66179 21.2072 5.6151 21.1777 5.58214 21.1354C5.49173 21.0386 5.47317 20.9049 5.54272 20.845C5.61227 20.7851 5.73746 20.8127 5.82788 20.9096C5.91829 21.0064 5.93915 21.1401 5.8696 21.2Z" fill="black"/>
<path d="M6.42152 21.9997C6.33574 22.0597 6.18968 21.9997 6.10854 21.8799C6.08611 21.8584 6.06827 21.8326 6.05608 21.8041C6.04389 21.7756 6.0376 21.7449 6.0376 21.7139C6.0376 21.6829 6.04389 21.6523 6.05608 21.6238C6.06827 21.5952 6.08611 21.5695 6.10854 21.548C6.19432 21.4903 6.34038 21.548 6.42152 21.6655C6.50266 21.7831 6.50498 21.9398 6.42152 21.9997V21.9997Z" fill="black"/>
<path d="M7.17055 22.7744C7.09405 22.8597 6.93873 22.8366 6.81122 22.7214C6.68372 22.6061 6.65357 22.4494 6.73007 22.3664C6.80658 22.2834 6.9619 22.3064 7.09404 22.4194C7.22618 22.5323 7.25169 22.6914 7.17055 22.7744V22.7744Z" fill="black"/>
<path d="M8.22037 23.2262C8.1856 23.3345 8.02796 23.383 7.87031 23.3369C7.71267 23.2907 7.60835 23.1617 7.63849 23.051C7.66862 22.9404 7.82859 22.8897 7.98855 22.9404C8.14851 22.9911 8.25051 23.1133 8.22037 23.2262Z" fill="black"/>
<path d="M9.36605 23.3045C9.36605 23.4174 9.23623 23.5142 9.06932 23.5165C8.9024 23.5188 8.76562 23.4266 8.76562 23.3137C8.76562 23.2007 8.89544 23.1039 9.06236 23.1016C9.22927 23.0993 9.36605 23.1892 9.36605 23.3045Z" fill="black"/>
<path d="M10.4321 23.1269C10.453 23.2399 10.3371 23.3574 10.1702 23.3851C10.0033 23.4127 9.8572 23.3459 9.83633 23.2352C9.81547 23.1246 9.93602 23.0047 10.0983 22.9748C10.2606 22.9448 10.4113 23.014 10.4321 23.1269Z" fill="black"/>
</g>
<defs>
<clipPath id="clip0_68_215">
<rect width="28" height="28" fill="white"/>
</clipPath>
</defs>
</svg>
