<svg width="29" height="31" viewBox="0 0 29 31" fill="none" xmlns="http://www.w3.org/2000/svg">
<path fill-rule="evenodd" clip-rule="evenodd" d="M12.7837 0.798017C12.3171 1.23681 11.8614 1.71828 11.7712 1.86781C11.6809 2.01734 11.513 2.12332 11.398 2.10338C10.7835 1.99653 10.6646 2.33721 11.0246 3.173C11.2708 3.74419 11.115 4.03153 10.2697 4.56512C9.75775 4.88848 9.66564 5.02227 9.73277 5.34599C9.77724 5.56076 9.72411 5.963 9.61453 6.23967C9.38556 6.81873 9.40389 8.26366 9.64961 8.9842C9.74187 9.25493 9.81738 9.9606 9.81738 10.5524C9.81738 12.486 10.5815 14.0383 11.6535 14.2819C12.1909 14.404 12.1863 14.3911 11.9599 15.1494L11.7923 15.7104L10.48 15.7807C9.43219 15.8369 9.04339 15.9358 8.55122 16.2718C8.00304 16.6459 7.90299 16.8169 7.64889 17.8136C7.28868 19.2266 7.28911 19.7918 7.6512 20.5113C7.80972 20.8263 7.93966 21.1641 7.93995 21.2621C7.94053 21.4179 7.36159 21.778 4.65921 23.3029C3.74692 23.8175 1.8731 26.4979 0.741644 28.9065C0.482783 29.4575 0.210062 29.954 0.135566 30.0098C0.0609248 30.0656 0 30.1852 0 30.2758C0 30.3776 5.43118 30.4404 14.2208 30.4404H28.4415V25.4753V20.5102L27.8279 20.1682C27.0912 19.7575 25.8909 19.4723 24.3269 19.3362C22.2828 19.1585 22.2335 19.1356 22.2335 18.3621C22.2335 17.4423 21.4839 16.5581 20.3712 16.1653C19.9264 16.0083 19.4651 15.8449 19.346 15.8024C19.018 15.6849 19.9875 14.7004 20.4311 14.7004C20.7317 14.7004 20.7897 14.6172 20.7897 14.1866C20.7897 13.7427 20.8404 13.6772 21.1606 13.7057C21.4605 13.7323 21.601 13.5904 21.8945 12.9647C22.1183 12.4876 22.2313 12.0248 22.1891 11.7579C22.1409 11.4526 22.2251 11.2081 22.4753 10.9274C22.8146 10.5463 22.8201 10.5071 22.6038 10.0003C22.3192 9.3338 22.3159 9.03772 22.5944 9.16731C23.1759 9.43751 22.5951 5.59381 21.9955 5.20381C21.6033 4.94882 21.6093 4.96194 21.521 4.16357C21.4562 3.57822 21.3443 3.35454 20.9758 3.07384C20.6901 2.85611 20.5099 2.57419 20.5066 2.33931C20.5027 2.0796 20.3973 1.94004 20.1762 1.90209C19.9629 1.86536 19.8513 1.72598 19.8513 1.49635C19.8513 1.24713 19.7401 1.131 19.4648 1.09253C19.2523 1.06262 19.0007 0.924985 18.9058 0.786473C18.7962 0.62645 18.4603 0.534459 17.9857 0.534459C17.5745 0.534459 17.1765 0.465552 17.101 0.381256C17.0256 0.297134 16.2141 0.176811 15.2979 0.114026L13.632 0L12.7837 0.798017Z" fill="#212020"/>
</svg>
