<svg width="51" height="49" viewBox="0 0 51 49" fill="none" xmlns="http://www.w3.org/2000/svg">
<circle cx="24.5" cy="24.5" r="24.5" fill="white"/>
<path d="M18.2 21.6H14.28V18.08H21.84V26.34C21.84 27.58 21.5933 28.6533 21.1 29.56C20.6067 30.4533 19.9267 31.1333 19.06 31.6C18.2067 32.0667 17.2533 32.3 16.2 32.3C15.1867 32.3 14.2467 32.0467 13.38 31.54C12.5267 31.0333 11.8467 30.3533 11.34 29.5C10.8333 28.6333 10.58 27.6933 10.58 26.68H14.22C14.22 27.2933 14.3933 27.8067 14.74 28.22C15.1 28.6333 15.58 28.84 16.18 28.84C16.82 28.84 17.3133 28.64 17.66 28.24C18.02 27.8267 18.2 27.2267 18.2 26.44V21.6ZM37.2847 28.46V32H26.6847V18.08H27.4247V28.46H37.2847Z" fill="#212020"/>
</svg>
