<svg width="19" height="32" viewBox="0 0 19 32" fill="none" xmlns="http://www.w3.org/2000/svg">
<path fill-rule="evenodd" clip-rule="evenodd" d="M9.66055 0.192874C9.32087 0.393713 9.16906 0.404404 8.95707 0.242821C8.20304 -0.331658 6.67373 0.347448 5.70843 1.68568C4.9422 2.74789 4.34429 4.16814 3.8202 6.17075C2.7604 10.2217 2.61318 11.9639 3.02065 15.6344C3.30876 18.2292 3.32025 18.0511 2.79429 19.1395C2.25814 20.249 1.15611 23.594 0.917842 24.8352C0.825347 25.3171 0.688186 25.8571 0.612927 26.0353C0.492713 26.3205 0.367329 27.6033 0.302123 29.2165C0.29049 29.5057 0.197852 29.9196 0.0963099 30.1366C-0.0177278 30.3802 -0.0315157 30.5309 0.0604039 30.5309C0.142126 30.5309 0.214225 30.3928 0.220401 30.2242C0.227582 30.0314 0.259181 30.0011 0.305715 30.1425C0.346505 30.2663 0.301119 30.4831 0.205034 30.6245C0.0523614 30.849 0.408982 30.8788 3.02812 30.8611C4.67678 30.8499 5.91827 30.8061 5.78685 30.7635C5.34032 30.6192 5.10033 29.4647 5.14959 27.6974C5.1753 26.7782 5.14758 26.2539 5.08625 26.5001C4.99117 26.8827 4.97552 26.8534 4.96302 26.2707C4.95441 25.8739 4.89035 25.6471 4.80504 25.7115C4.58716 25.8758 4.63139 25.5902 4.94765 24.7916C5.32998 23.8259 5.58607 23.6375 5.45393 24.419C5.22485 25.7737 5.21422 25.8937 5.34808 25.6238C5.41975 25.4792 5.62671 24.7104 5.80796 23.9151C5.98922 23.1198 6.19058 22.4693 6.2555 22.4693C6.32027 22.4693 6.45255 22.7917 6.54935 23.1859C6.68537 23.7399 6.68666 23.978 6.5551 24.2349C6.2723 24.7877 6.35704 25.3276 6.98281 26.9568C7.31157 27.8131 7.71558 29.0267 7.88046 29.6538L8.18035 30.7938L9.63067 30.8434L11.0808 30.8932L11.3239 29.4414C11.4574 28.6429 11.6548 27.556 11.7623 27.0258C11.8701 26.4957 11.9967 25.7954 12.0441 25.4694L12.1302 24.8769L11.5914 24.9941C10.0924 25.3206 9.61947 25.3089 8.78602 24.9253C7.78783 24.4658 7.46137 23.9603 7.59609 23.0834C7.64808 22.7456 7.77045 22.4693 7.86826 22.4693C7.98675 22.4693 8.04965 22.1428 8.05741 21.4868C8.07048 20.3866 8.21899 20.1735 8.89158 20.2895L9.3292 20.365L8.89143 20.1945C8.65072 20.1007 7.96779 19.5161 7.3739 18.8952C6.07195 17.5341 5.47921 16.3005 5.1651 14.2976C4.86622 12.3917 4.89437 11.6658 5.30916 10.5785C5.50578 10.0629 5.66678 9.3374 5.66678 8.96639C5.66678 8.50757 5.77005 8.15829 5.98994 7.87386C6.32587 7.43958 6.81592 7.38701 8.08987 7.64884L8.61108 7.75591L8.275 7.40453C7.99766 7.11431 7.79041 7.06647 7.08708 7.12956C6.61858 7.17179 6.17607 7.25084 6.10383 7.30516C5.86484 7.4855 6.22132 6.31586 6.70476 5.33357C7.40478 3.91139 8.16757 2.92787 8.89388 2.51147C9.80101 1.99114 10.1176 2.04074 10.9987 2.84182C11.613 3.40018 11.9019 3.84725 12.4125 5.02933C12.844 6.02792 13.0068 6.57278 12.9095 6.6916C12.8298 6.78887 12.4489 6.92118 12.0629 6.98568C11.3384 7.10695 10.8373 7.47516 10.8373 7.88648C10.8373 8.0563 10.9275 8.08223 11.1604 7.97919C11.3382 7.90067 11.8714 7.83618 12.3453 7.836L13.2071 7.83565L13.2516 8.49285L13.2963 9.15005H12.6732C11.9325 9.15005 11.1346 9.72576 11.1267 10.2657C11.1255 10.3493 11.5446 10.3851 12.0581 10.3451C12.5715 10.3051 12.9916 10.3339 12.9916 10.4091C12.9916 10.4841 13.1558 10.5957 13.3564 10.6571C13.592 10.7293 13.8278 11.0237 14.022 11.4881C14.2835 12.1138 14.312 12.4075 14.2407 13.7492C14.1459 15.5343 13.7505 16.7702 12.9645 17.7374C11.9903 18.9363 10.956 20.0157 10.7818 20.0157C10.6844 20.0157 10.4946 20.1144 10.3597 20.2348C10.1407 20.4304 10.1565 20.4568 10.5074 20.4816C10.7235 20.4968 10.9239 20.5958 10.9529 20.7017C10.9817 20.8075 11.0517 20.8594 11.1081 20.8166C11.1646 20.7741 11.2956 21.0892 11.399 21.5166C11.569 22.2194 11.693 22.3781 12.0222 22.3147C12.0813 22.3033 12.1299 22.4207 12.1299 22.5757C12.1299 22.7591 12.2082 22.8207 12.3547 22.752C12.5312 22.6694 12.56 22.7313 12.4889 23.0399C12.4199 23.3394 12.4331 23.3715 12.5438 23.1748C12.6238 23.0327 12.7631 22.382 12.8535 21.7285C12.9438 21.0751 13.0765 20.5848 13.1483 20.6389C13.2201 20.6931 13.2789 20.851 13.2789 20.99C13.2789 21.1289 13.3352 21.2425 13.4038 21.2425C13.4726 21.2425 13.6106 21.5995 13.7107 22.0357C13.9571 23.1089 13.8176 24.5961 13.4044 25.3043C13.2171 25.6254 13.0913 26.0735 13.109 26.3569C13.1259 26.6286 13.0762 26.8506 12.9984 26.8506C12.9207 26.8506 12.8934 26.7125 12.9379 26.5439C13.0007 26.3056 12.9872 26.2912 12.8772 26.4798C12.7992 26.6131 12.7656 26.9552 12.8023 27.2402C12.8792 27.8352 12.2263 29.2223 11.9628 29.0236C11.8577 28.9443 11.8263 29.1103 11.8665 29.5307C11.8994 29.8746 11.8751 30.1173 11.8126 30.0702C11.7501 30.023 11.699 30.1864 11.699 30.4329V30.8814H15.2373H18.7757L18.672 30.049C18.3268 27.277 18.2385 25.7777 18.3445 24.4847C18.5466 22.0176 18.2961 20.5483 17.393 18.905C17.0535 18.2872 16.6874 17.5215 16.5794 17.2033C16.3873 16.6377 16.3764 16.3349 16.4298 13.0932C16.4708 10.6094 15.6603 6.17075 14.7776 4.04546C14.1456 2.52374 13.0499 0.780497 12.6848 0.716004C12.4263 0.670263 12.3318 0.629254 11.8426 0.349726C11.1489 -0.0466965 10.1835 -0.116097 9.66055 0.192874ZM6.31309 9.50056C5.96854 9.77903 5.93751 9.84896 6.15812 9.84984C6.30993 9.85054 6.55065 9.72243 6.69312 9.56505C6.93527 9.29761 6.96098 9.30778 7.08938 9.7198C7.19322 10.053 7.35279 10.1784 7.74373 10.234C8.02811 10.2745 8.28663 10.2761 8.31838 10.2375C8.45137 10.075 8.18868 9.64479 7.8108 9.40645C7.25972 9.05857 6.82626 9.08591 6.31309 9.50056ZM12.6588 9.88401C12.613 10.0237 12.579 9.98215 12.5721 9.77798C12.5659 9.59326 12.5998 9.48987 12.6475 9.54805C12.6952 9.60623 12.7004 9.75748 12.6588 9.88401ZM11.7708 10.0263C11.8196 10.1227 11.7911 10.2016 11.7075 10.2016C11.6239 10.2016 11.5554 10.1227 11.5554 10.0263C11.5554 9.92993 11.5838 9.85106 11.6187 9.85106C11.6536 9.85106 11.722 9.92993 11.7708 10.0263ZM11.2384 13.5389C11.2724 13.8219 11.3516 14.0149 11.4143 13.9676C11.5399 13.8729 11.4363 13.2201 11.2767 13.0997C11.2216 13.0582 11.2044 13.2557 11.2384 13.5389ZM8.82652 14.0571C8.82652 14.1535 8.92346 14.2324 9.04195 14.2324C9.16044 14.2324 9.25739 14.1535 9.25739 14.0571C9.25739 13.9607 9.16044 13.8819 9.04195 13.8819C8.92346 13.8819 8.82652 13.9607 8.82652 14.0571ZM10.1954 14.0484C10.0906 14.2555 10.6477 14.6383 10.8413 14.4921C10.9275 14.4273 10.9022 14.2865 10.7768 14.1335C10.5385 13.8428 10.316 13.8102 10.1954 14.0484ZM9.93961 15.9441C9.8013 15.9807 9.68826 16.0769 9.68826 16.1579C9.68826 16.239 9.42974 16.2692 9.11377 16.2248C8.79779 16.1805 8.53927 16.2168 8.53927 16.3056C8.53927 16.5117 9.24964 16.6854 10.1012 16.6875L10.7654 16.6891L10.0473 17.1202C9.39096 17.5142 9.37488 17.6477 9.99246 17.5753C10.1203 17.5603 10.4733 17.3934 10.7768 17.2047C11.0804 17.0158 11.4768 16.8612 11.6575 16.8612C12.0259 16.8612 12.0472 16.8018 11.8445 16.3396C11.7563 16.1386 11.6006 16.0491 11.4323 16.1029C11.2835 16.1504 10.9433 16.119 10.6764 16.0335C10.4094 15.9478 10.0779 15.9075 9.93961 15.9441ZM7.67752 16.3987C7.67752 16.5587 7.79587 16.6097 8.03658 16.5536C8.23407 16.5075 8.39564 16.4001 8.39564 16.3149C8.39564 16.2299 8.23407 16.1602 8.03658 16.1602C7.82948 16.1602 7.67752 16.2611 7.67752 16.3987Z" fill="white"/>
<ellipse cx="9.5679" cy="10.2722" rx="5.13333" ry="10.1487" fill="white"/>
<rect x="3.70117" y="17.6018" width="11" height="13.5316" fill="white"/>
</svg>
